/* XPM */
static char *dummy[]={
"32 32 606 2",
"Qt c None",
"fN c #000000",
"gc c #000000",
".B c #000001",
"hu c #000000",
"gU c #000000",
"hk c #000000",
"hB c #000000",
".l c #000003",
"gA c #000000",
"gT c #000000",
"#o c #000207",
"g9 c #000000",
"hj c #000000",
"ht c #000000",
".# c #000106",
"hA c #000000",
".c c #000107",
".b c #000107",
".C c #000108",
".Y c #000109",
"h. c #000308",
"gB c #000309",
"hv c #000408",
"gb c #000205",
".X c #000610",
"#R c #000712",
"bb c #000813",
"ch c #000913",
"cH c #000914",
"dR c #000a15",
"e0 c #000b15",
"fo c #000b16",
"fM c #000b16",
"#p c #000111",
"hs c #000307",
"g8 c #00050a",
"hz c #000307",
"hi c #000409",
"gS c #00050b",
"gz c #00060d",
".A c #010919",
"fO c #00091a",
"#S c #000214",
"aj c #000215",
"aL c #000315",
"bB c #000416",
"ci c #000517",
"c7 c #000618",
"dS c #000718",
"ef c #000719",
"eC c #000819",
"e1 c #00081a",
"fp c #00091a",
"hl c #051322",
".k c #020d22",
"gV c #041223",
"gd c #031124",
".a c #020c23",
".d c #091c39",
".W c #082140",
".m c #0a1e3c",
".D c #242b41",
".Z c #2b3045",
"hw c #17304a",
"h# c #162f4c",
".z c #0c2c4f",
"gC c #0e2c4d",
".j c #11345d",
"hy c #001d46",
"hr c #00204a",
"hh c #00224d",
"#n c #153a67",
"g7 c #002652",
"gR c #062d58",
"gy c #08315b",
"ga c #0a3460",
"hm c #315478",
"gW c #2d537b",
".V c #184c7d",
"ge c #204f7c",
".e c #1d5285",
".n c #20598b",
".y c #1c558b",
".E c #637795",
".0 c #758098",
"hx c #2b5289",
".i c #205f99",
"ha c #4977a7",
"gD c #3a72a8",
"#m c #3675ad",
".U c #2775b8",
"hq c #00348e",
"hg c #003a95",
"g6 c #004099",
"gQ c #1254a6",
"gx c #165bac",
"hn c #6a98cb",
"g# c #1b60b1",
"gX c #5d95cc",
".x c #2c7fc5",
"gf c #3f8ccd",
".f c #3188cb",
".o c #3591d2",
".F c #8ab7db",
"#P c #1a4ca7",
".h c #318ad0",
"#q c #607db9",
".1 c #bdcfe3",
"ae c #3860b0",
"aV c #4365b7",
"#O c #4682c9",
"bp c #6b85c7",
"ar c #a0b2da",
"#r c #c8d4e9",
"#Q c #013095",
"af c #08268e",
"aF c #1f3494",
"ap c #214ead",
"bo c #294cad",
"#V c #315db2",
"a3 c #4051a3",
"aq c #5a7bc1",
"#N c #62b1e7",
"aE c #6784c1",
"#W c #718fc9",
"ad c #7facdc",
"aW c #8a9ed2",
"#X c #b5c4e2",
"aX c #cfdaed",
"as c #dfe8f4",
"aG c #001482",
"a4 c #04117f",
"bn c #0e38a5",
"bs c #142087",
"aU c #1642a8",
"#l c #3893d8",
"fE c #3f5db0",
"fd c #415daf",
"f3 c #4160b2",
"eR c #435daf",
"eu c #465eaf",
"d7 c #495faf",
"dI c #4d61af",
"dk c #5163b0",
"cx c #5565b1",
"cW c #5566b2",
"br c #6876b6",
"hb c #7aabde",
"a2 c #94aad5",
"ac c #95d1f4",
"aD c #a8d0ee",
"bq c #bccce6",
"a1 c #c5e6f9",
"aY c #e2f4fc",
"#Y c #ebf3fa",
"#s c #f5fafd",
"bt c #000c7c",
"cb c #000d7c",
"cX c #000d7d",
"bR c #000e7d",
"cy c #000e7e",
"dl c #000f7e",
"a5 c #00107f",
"cY c #00117f",
"dJ c #001180",
"bS c #001281",
"cz c #001381",
"d8 c #001382",
"bu c #001482",
"a6 c #001583",
"cZ c #001684",
"bT c #001885",
"eS c #001986",
"cA c #001a87",
"f4 c #001b87",
"bv c #001b88",
"aH c #001c88",
"a7 c #001d89",
"c0 c #001e8a",
"bU c #00208b",
"cB c #00208c",
"dm c #00218c",
"bw c #00228d",
"cc c #00238e",
"ag c #00248f",
"g5 c #00258f",
"a8 c #002590",
"aI c #002690",
"d9 c #002691",
"eT c #002791",
"bx c #002892",
"c1 c #002992",
"dK c #002993",
"fe c #002a93",
"a9 c #002a94",
"bV c #002b94",
"dn c #002b95",
"e. c #002c95",
"ah c #002d96",
"cd c #002e96",
"c2 c #002e97",
"ev c #002f97",
"ff c #002f98",
"b. c #003098",
"cC c #003099",
"do c #003199",
"aJ c #00329a",
"by c #00339a",
"ce c #00339b",
"dL c #00349b",
"fg c #00349c",
"ai c #00359a",
"b# c #00359c",
"cD c #00369d",
"dp c #00379d",
"fF c #00379e",
"aK c #00389c",
"gs c #00389e",
"bz c #00389f",
"ba c #003a9f",
"f5 c #003aa0",
"bW c #003ba1",
"bA c #003da1",
"gt c #003da3",
"gO c #0040a5",
"e# c #01379e",
"fh c #013ba0",
"bX c #0141a4",
"c3 c #023aa0",
"cE c #033ea2",
"fG c #033fa4",
"cf c #0341a4",
"dM c #043ca1",
"ew c #043da1",
"gP c #0449ab",
"f6 c #0544a6",
"dq c #0641a4",
"gu c #0647a9",
"c4 c #0744a6",
"ea c #0842a5",
"eU c #0943a5",
"dN c #0946a7",
"cF c #0947a8",
"cg c #094aa8",
"bP c #0a31a2",
"dr c #0a49a9",
"ex c #0b47a8",
"fi c #0c49a9",
"eb c #0c4baa",
"c5 c #0c4cac",
"cG c #0c4eac",
"c# c #0d36a4",
"bO c #0d37a5",
"dO c #0d4ead",
"eV c #0e4cab",
"c6 c #0e53af",
"fH c #0f4eac",
"ey c #0f50ae",
"ds c #0f51af",
"c. c #103ca7",
"ec c #1053b0",
"bm c #113da7",
"bN c #113da8",
"fj c #1151af",
"dt c #1157b1",
"f7 c #1253af",
"eW c #1254b1",
"dP c #1256b2",
"ez c #1358b3",
"b9 c #1441ab",
"bl c #1442aa",
"bM c #1443ab",
"fI c #1456b2",
"dQ c #145cb4",
"gv c #1558b2",
"fk c #1559b4",
"ed c #155bb5",
"cv c #1643ab",
"cu c #1646ad",
"eX c #165cb6",
"ee c #165fb7",
"aT c #1745aa",
"bk c #1746ac",
"b8 c #1747ae",
"bL c #1748ae",
"f8 c #175bb4",
"cw c #1841aa",
"fJ c #185eb7",
"eA c #185fb8",
"fl c #1960b9",
"eB c #1962b9",
"aS c #1a4aac",
"bj c #1a4bae",
"ct c #1a4cb1",
"b7 c #1a4db1",
"gw c #1a5fb7",
"bK c #1b4db1",
"f9 c #1b62b9",
"eY c #1b62ba",
"ao c #1c4dac",
"eZ c #1c64bb",
"aR c #1d4eae",
"bi c #1d4fb0",
"cs c #1d51b4",
"bJ c #1e52b3",
"b6 c #1e52b5",
"fm c #1e65bc",
"fn c #1e67bd",
"an c #1f51ae",
"aQ c #1f52b0",
"g. c #1f66bd",
"bh c #2054b2",
"bI c #2055b5",
"cR c #2056b7",
"#U c #2153ad",
"am c #2155b0",
"cr c #2157b7",
"b5 c #2158b8",
"fK c #2167be",
"fL c #2169bf",
"#T c #2255ae",
"aP c #2256b2",
"bg c #2358b4",
"bH c #2359b6",
"cQ c #235bba",
"al c #2458b1",
"aO c #245ab4",
"cq c #245cba",
"cS c #2556b6",
"ak c #255ab2",
"bf c #255cb6",
"b4 c #255dbb",
"bG c #265eb8",
"aN c #275eb5",
"b3 c #2761bc",
"cP c #2761bd",
"cp c #2762be",
"aM c #2860b6",
"be c #2860b8",
"bF c #2862ba",
"de c #2962bd",
"b2 c #2964bd",
"dd c #2966c0",
"bd c #2a64b9",
"cO c #2a67c0",
"cT c #2b59b6",
"bE c #2b66bc",
"b1 c #2b68be",
"co c #2b68c1",
"bc c #2c66b9",
"bD c #2d69be",
"dc c #2d6bc3",
"cn c #2d6cc3",
"cN c #2d6cc4",
"b0 c #2e6cc0",
"cU c #2f59b6",
"bC c #2f6cbe",
"cm c #2f6ec3",
"dA c #2f70c6",
"cV c #3057b4",
"dB c #306dc4",
"db c #3071c6",
"bZ c #3170c2",
"cM c #3172c7",
"df c #3266be",
"bY c #3272c2",
"cl c #3272c5",
"dz c #3375c9",
"cL c #3376c8",
"ck c #3476c6",
"da c #3476c9",
"dg c #3565bd",
"dZ c #3576c9",
"cK c #3578c9",
"dh c #3663bb",
"cj c #3678c7",
"dY c #367acc",
"dy c #367bcc",
".T c #3697dd",
"di c #3761ba",
"d# c #377ccd",
"dj c #3860b8",
"cJ c #387dcb",
"cI c #397fcb",
"el c #397fce",
"d. c #3980ce",
"dX c #3980cf",
"dC c #3a71c4",
"dx c #3a81cf",
".w c #3a9ee3",
"#k c #3a9ee4",
"#j c #3a9fe5",
".S c #3ba0e5",
"#i c #3ba1e6",
".R c #3ba2e6",
"dD c #3c6fc3",
"c9 c #3c84d0",
"ek c #3c84d2",
".g c #3ca3e6",
".v c #3ca3e7",
"dE c #3d6dc1",
"c8 c #3d85cf",
"dW c #3d85d2",
"dw c #3d86d3",
".u c #3da5e8",
"dF c #3e6bc0",
".t c #3ea7e9",
"dG c #3f69be",
"eH c #3f89d4",
"ej c #3f8ad5",
"#h c #3fa5e7",
".s c #3fa9ea",
"dH c #4068bd",
"dv c #408ad4",
"dV c #408bd5",
".Q c #40a6e8",
".r c #40abeb",
".q c #40adec",
"d0 c #417bca",
"du c #418cd4",
".p c #41afed",
"d1 c #4279c8",
"eG c #428ed7",
"d2 c #4377c7",
"ei c #438fd8",
"dU c #4390d9",
"d3 c #4475c5",
"d4 c #4573c3",
"eI c #4589d3",
"dT c #4593d9",
"e5 c #4593da",
"gr c #4666b5",
"d5 c #4671c2",
"em c #4684cf",
"eF c #4694db",
"eh c #4695db",
"d6 c #4770c1",
"ft c #4897dd",
"eg c #4898dc",
"e4 c #4899dd",
"en c #4983ce",
"eE c #499ade",
"gN c #4a6bb8",
"eo c #4a81cc",
"fS c #4a9cdf",
"ep c #4b7fca",
"eD c #4b9ddf",
"fs c #4b9de0",
"e3 c #4b9ee0",
"eq c #4c7dc9",
"fu c #4c97db",
"er c #4d7bc7",
"gg c #4da0e2",
"e2 c #4da1e2",
"g4 c #4e71bb",
"es c #4e79c6",
"fR c #4ea1e3",
"fr c #4ea3e3",
".P c #4eaeea",
"et c #4f78c5",
"fP c #4fa5e3",
"eK c #508ad1",
"eJ c #508dd3",
"fq c #50a6e4",
"eL c #5188d0",
"fQ c #51a7e6",
"#L c #51afea",
"hf c #5276be",
"eM c #5286ce",
"eN c #5384cc",
"#g c #53afea",
"eO c #5482cb",
"e6 c #5496d9",
"#M c #54afea",
"eP c #5580c9",
"hp c #567bc1",
"eQ c #567fc8",
"e8 c #5791d5",
"e7 c #5794d7",
"e9 c #588fd3",
"fT c #58a0df",
"ca c #5968b2",
"f. c #598dd1",
"f# c #5a8bd0",
"fa c #5b89ce",
"fb c #5c88cd",
"fw c #5d9bda",
"fv c #5d9ddc",
"fc c #5e86cc",
"fx c #5e98d8",
".O c #5eb6ed",
"fy c #5f96d6",
"bQ c #606eb5",
"fz c #6093d5",
"gh c #60a8e3",
"fA c #6192d3",
"fB c #6290d2",
"fC c #638fd1",
"fV c #64a1dd",
"fU c #64a4df",
"fD c #658ecf",
"fW c #659fdc",
"fX c #669cda",
"fY c #679ad8",
"fZ c #6898d6",
"f0 c #6997d5",
"f1 c #6a96d4",
"gE c #6aa9e1",
"gi c #6aaae2",
"#f c #6abbee",
"gj c #6ba7e0",
"f2 c #6c94d3",
"gl c #6ca3dd",
"gk c #6ca5df",
".N c #6dbeef",
"gm c #6ea1db",
"gn c #6f9fda",
"go c #709dd8",
"gp c #719cd7",
"gF c #71ade3",
"gG c #72abe1",
"gq c #739bd6",
"gH c #73a9e0",
"#K c #73c1f0",
"gI c #74a7de",
"gJ c #75a5dd",
"gK c #76a4db",
"gL c #78a3da",
"gM c #79a1d9",
"gY c #79afe2",
"gZ c #7aade1",
"#J c #7ac5f2",
".M c #7bc5f1",
"g0 c #7cace0",
"g1 c #7daade",
"#e c #7dc5f1",
"aa c #7dc9f4",
"g2 c #7ea9dd",
"g3 c #80a8dc",
"#I c #81c9f3",
"hc c #83b0e1",
"ab c #84cbf4",
"a# c #84ccf5",
"hd c #85afe0",
"#d c #85c9f2",
"he c #86aedf",
".L c #88ccf3",
"#H c #88cdf4",
"a. c #8ad0f6",
"ho c #8cb3e1",
"#c c #8ccdf4",
"#G c #8ed0f5",
"#9 c #91d4f7",
"#b c #92d1f5",
".K c #93d1f5",
"aB c #94d6f8",
"aA c #94d7f9",
"#F c #95d4f6",
"#8 c #98d7f8",
"#a c #99d4f6",
".J c #9bd6f6",
"az c #9bdaf9",
"#E c #9cd8f8",
"#7 c #9edbf9",
"## c #a0d8f7",
".G c #a0daf8",
".I c #a1d9f7",
"#D c #a2dbf8",
"ay c #a2ddfa",
".H c #a4dbf8",
"#6 c #a5defa",
"#. c #a7dcf8",
"aC c #a7dcf9",
"#C c #a9def9",
"ax c #a9e0fa",
"#5 c #ace0fb",
"a0 c #ace1fa",
".9 c #addff9",
"#B c #b0e1fa",
"aw c #b0e3fb",
"#4 c #b3e3fb",
".8 c #b4e2fa",
"#A c #b6e4fb",
"av c #b8e6fb",
".7 c #bae5fb",
"#3 c #bae6fb",
"#z c #bde7fc",
"#2 c #c0e9fc",
".6 c #c1e8fb",
"#y c #c4e9fc",
"aZ c #c6ebfc",
".5 c #c7eafc",
"#1 c #c7ebfc",
"#x c #caecfc",
".4 c #ceedfc",
"au c #ceeefc",
"#w c #d1eefc",
".3 c #d4effd",
"#0 c #d6f0fc",
"#v c #d7f1fd",
".2 c #dbf2fc",
"#u c #e0f4fd",
"at c #e4f5fd",
"#Z c #e8f7fd",
"#t c #edf9fe",
"QtQtQtQtQtQtQtQtQtQtQtQtQtQtQtQtQtQtQtQtQtQtQtQtQtQtQtQtQtQtQtQt",
"QtQtQtQtQtQtQtQtQtQtQtQtQtQtQtQtQtQtQtQtQtQtQtQtQtQtQtQtQtQtQtQt",
"QtQtQtQtQtQtQtQtQtQtQtQtQtQt.#.a.bQtQtQtQtQtQtQtQtQtQtQtQtQtQtQt",
"QtQtQtQtQtQtQtQtQtQtQt.c.d.e.f.g.h.i.j.k.lQtQtQtQtQtQtQtQtQtQtQt",
"QtQtQtQtQtQtQtQt.b.m.n.o.p.q.r.s.t.u.v.w.x.y.z.A.BQtQtQtQtQtQtQt",
"QtQtQtQtQt.C.D.E.F.G.H.H.I.J.K.L.M.N.O.P.Q.R.S.T.U.V.W.XQtQtQtQt",
"QtQt.Y.Z.0.1.2.3.4.5.6.7.8.9#.###a#b#c#d#e#f#g#h#i#j#k#l#m#n#oQt",
"Qt#p#q#r#s#t#u#v#w#x#y#z#A#B#C#D#E#F#G#H#I#J#K#f#L#M#N#O#P#Q#RQt",
"Qt#S#T#U#V#W#X#Y#Z#0#1#2#3#4#5#6#7#8#9a.a#aaabacadaeafagahai#RQt",
"QtajakalamanaoapaqarasatauavawaxayazaAaBaCaDaEaFaGaHaIahaJaK#RQt",
"QtaLaMaNaOaPaQaRaSaTaUaVaWaXaYaZa0#Aa1a2a3a4a5a6a7a8a9b.b#babbQt",
"QtaLbcbdbebfbgbhbibjbkblbmbnbobpbqbrbsbtbta5bubvbwbxahbybzbAbbQt",
"QtbBbCbDbEbFbGbHbIbJbKbLbMbNbObPbQbtbtbtbRbSbTbUa8bVb.b#bWbXbbQt",
"QtbBbYbZb0b1b2b3b4b5b6b7b8b9c.c#cabtbtcba5a6a7ccbxcdcebzcfcgchQt",
"QtcicjckclcmcncocpcqcrcsctcucvcwcxbtbtcyczcAcBaIbVcCcDcEcFcGcHQt",
"QtcicIcJcKcLcMcNcOcPcQcRcScTcUcVcWbtcXcYcZc0ccc1c2cec3c4c5c6cHQt",
"Qtc7c8c9d.d#dadbdcdddedfdgdhdidjdkbtdlczcAdmaIdndodpdqdrdsdtcHQt",
"Qtc7dudvdwdxdydzdAdBdCdDdEdFdGdHdIcXdJcZc0ccdKc2dLdMdNdOdPdQdRQt",
"QtdSdTdUdVdWdXdYdZd0d1d2d3d4d5d6d7cyd8cAdmd9e.doe#eaebecedeedRQt",
"Qtefegeheiejekelemeneoepeqereseteua5cZa7agdKevdLewexeyezeAeBdRQt",
"QteCeDeEeFeGeHeIeJeKeLeMeNeOePeQeRbSeSdmeTe.dodpeUeVeWeXeYeZe0Qt",
"Qte1e2e3e4e5eGe6e7e8e9f.f#fafbfcfda6a7agfefffgfhfifjfkflfmfnfoQt",
"QtfpfqfrfsftfufvfwfxfyfzfAfBfCfDfEbTdmeTe.aJfFfGfHfIfJeZfKfLfMfN",
"QtfOfPfQfRfSfTfUfVfWfXfYfZf0f1f2f3f4agfeffb#f5f6f7f8f9g.g#gagbgc",
"QtfNgdgegfggghgigjgkglgmgngogpgqgrc0eTahaJgsgtgugvgwgxgygzgAfNQt",
"QtQtQtgcgBgCgDgEgFgGgHgIgJgKgLgMgNbwa9b.b#f5gOgPgQgRgSgTgcQtQtQt",
"QtQtQtQtQtQtgUgVgWgXgYgZg0g1g2g3g4g5ahaJgsgtg6g7g8g9gcQtQtQtQtQt",
"QtQtQtQtQtQtQtQtgch.h#hahbhchdhehfbxb.b#hghhhihjgcQtQtQtQtQtQtQt",
"QtQtQtQtQtQtQtQtQtQtfNhkhlhmhnhohpbVhqhrhshthuQtQtQtQtQtQtQtQtQt",
"QtQtQtQtQtQtQtQtQtQtQtQtQthuhvhwhxhyhzhAhuQtQtQtQtQtQtQtQtQtQtQt",
"QtQtQtQtQtQtQtQtQtQtQtQtQtQtQtfNhBgAhuQtQtQtQtQtQtQtQtQtQtQtQtQt",
"QtQtQtQtQtQtQtQtQtQtQtQtQtQtQtQtQtQtQtQtQtQtQtQtQtQtQtQtQtQtQtQt"};
