/* XPM */
static char *dummy[]={
"32 32 166 2",
"Qt c None",
".9 c #070707",
"aF c #0a0b0b",
"ab c #0d0d0d",
"#Q c #0e0e0f",
"#q c #131314",
".J c #141415",
"#K c #151516",
"#e c #171718",
"#h c #181819",
".d c #1b1b1c",
"#7 c #1b1b1d",
"#0 c #1c1c1d",
"#T c #1c1d1e",
".f c #1d1d1e",
"ao c #1a1b1b",
"#X c #222224",
"#E c #232325",
"aE c #262628",
"ad c #2a2a2c",
"at c #2a2b2d",
"a# c #1b1b1c",
".c c #2e2f30",
"aw c #2f2f31",
".l c #222223",
".e c #2d2d2f",
"#6 c #303032",
".m c #303133",
".A c #333335",
"al c #353637",
"#2 c #3a3a3c",
"#v c #29292b",
"#A c #2c2d2e",
".2 c #333436",
"ay c #3a3a3d",
".P c #3e3e41",
"aj c #424346",
"#W c #464649",
"ah c #252626",
"#l c #444447",
"aD c #494a4c",
".z c #414244",
"#y c #46474a",
"#Y c #424345",
"#V c #48484a",
"#i c #4c4d50",
".3 c #4f5053",
"#O c #57585b",
".I c #3a3a3d",
"#9 c #444547",
"#p c #363638",
"aq c #4e4f52",
"ae c #323234",
"au c #4a4a4d",
".b c #4e4f52",
"aA c #525256",
"#I c #696a6f",
".T c #313132",
".r c #3e3f41",
".X c #404041",
"aB c #464749",
"#C c #4a4b4d",
"af c #4c4d50",
"#5 c #4f5053",
"#d c #3e3f41",
"ap c #424345",
"#. c #4a4b4f",
"aH c #4b4c4f",
"#M c #545457",
"#S c #57585b",
"aI c #606165",
"aJ c #616266",
"#w c #252526",
".8 c #404143",
"#G c #48494b",
"#1 c #4e4e51",
".O c #404043",
"aa c #4a4a4d",
"av c #4d4e51",
"#F c #57585b",
".k c #3a3a3c",
".Q c #414144",
".U c #424244",
"aG c #454547",
"ag c #464749",
"#m c #48494c",
"#3 c #4e4e51",
".K c #555659",
".Y c #5a5b5e",
"#P c #373739",
"ak c #404042",
"#B c #4c4c4e",
"am c #525355",
".# c #747579",
"ac c #3d3d3f",
"#R c #404143",
"#N c #505153",
"as c #66666a",
"#r c #373739",
"#u c #373839",
".n c #3d3d3f",
"aC c #434446",
".s c #545457",
"a. c #626366",
"#J c #646467",
"ax c #656669",
"ar c #696a6e",
"#t c #929399",
"## c #333335",
"#c c #3d3d3e",
"#Z c #3f3f41",
"#U c #434346",
"#8 c #4e4f51",
".h c #000000",
".p c #010101",
".q c #030303",
".i c #080808",
".x c #0c0c0c",
"#j c #131314",
"#n c #161616",
".y c #171718",
".w c #202020",
"#k c #212122",
".j c #2b2b2d",
".H c #2c2c2d",
".g c #393a3b",
".4 c #454646",
"#H c #4a4b4d",
".o c #4d4e50",
".v c #4e4e4e",
"#s c #4e4e50",
".N c #4f4f51",
"#f c #4f4f52",
"#4 c #505052",
"#L c #555558",
"#o c #565656",
".G c #585858",
"#z c #58595c",
"az c #59595c",
"#b c #5a5a5a",
".B c #5a5a5b",
"#a c #5b5b5b",
"an c #5e5f63",
"#x c #5f6063",
".a c #66676b",
".1 c #6c6c6d",
"#D c #6c6d70",
"ai c #6d6e72",
"#g c #6e6f72",
".t c #777778",
".7 c #7d7d7e",
".u c #7e7e7e",
".Z c #989898",
".L c #a7a7a7",
".W c #b3b3b3",
".R c #c7c7c7",
".F c #cacaca",
".V c #cecece",
".S c #cfcfcf",
".M c #d3d3d3",
".5 c #e1e1e1",
".6 c #f1f1f1",
".E c #fafafa",
".C c #fbfbfb",
".0 c #fcfcfc",
".D c #ffffff",
"QtQtQtQtQtQtQtQtQtQtQtQtQtQt.#.a.b.cQtQtQtQtQtQtQtQtQtQtQtQtQtQt",
"QtQtQtQtQtQtQtQtQtQtQt.d.e.f.g.h.i.j.k.lQtQtQtQtQtQtQtQtQtQtQtQt",
"QtQtQtQtQtQtQtQtQtQtQt.m.n.o.h.h.h.p.q.rQtQtQtQtQtQtQtQtQtQtQtQt",
"QtQtQtQtQtQtQtQtQtQtQtQt.s.t.u.v.w.x.y.zQtQtQtQtQtQtQtQtQtQtQtQt",
"QtQtQtQtQtQtQtQtQtQtQt.A.B.C.D.D.E.F.G.H.I.JQtQtQtQtQtQtQtQtQtQt",
"QtQtQtQtQtQtQtQtQtQtQt.K.L.D.D.D.D.D.M.N.O.PQtQtQtQtQtQtQtQtQtQt",
"QtQtQtQtQtQtQtQtQtQtQt.Q.R.D.D.D.D.D.S.TQtQtQtQtQtQtQtQtQtQtQtQt",
"QtQtQtQtQtQtQtQtQtQtQt.U.V.D.D.D.D.D.W.XQtQtQtQtQtQtQtQtQtQtQtQt",
"QtQtQtQtQtQtQtQtQtQtQt.Y.Z.D.D.D.D.0.1.2QtQtQtQtQtQtQtQtQtQtQtQt",
"QtQtQtQtQtQtQtQtQtQtQt.3.4.5.D.D.6.7.8.9QtQtQtQtQtQtQtQtQtQtQtQt",
"QtQtQtQtQtQtQtQtQtQtQtQt#.###a#b#c#dQtQtQtQtQtQtQtQtQtQtQtQtQtQt",
"QtQtQtQtQtQtQtQtQtQtQtQtQt#e#f#g#hQtQtQtQtQtQtQtQtQtQtQtQtQtQtQt",
"QtQtQtQtQtQtQtQtQtQtQtQtQt#i#j#k#lQtQtQtQtQtQtQtQtQtQtQtQtQtQtQt",
"QtQtQtQtQtQtQtQtQtQtQtQtQt#m#n#o#pQtQtQtQtQtQtQtQtQtQtQtQtQtQtQt",
"QtQtQtQtQtQtQtQtQtQtQtQt#q#r#s#t#u.JQtQtQtQtQtQtQtQtQtQtQtQtQtQt",
"QtQtQtQtQtQtQtQtQtQtQtQt#v#w#x#y#z#AQtQtQtQtQtQtQtQtQtQtQtQtQtQt",
"QtQtQtQtQtQtQtQtQtQtQtQt#B#C#D#E#F#GQtQtQtQtQtQtQtQtQtQtQtQtQtQt",
"QtQtQtQtQtQtQtQtQtQtQt.f#H#I#J#K.z#L.fQtQtQtQtQtQtQtQtQtQtQtQtQt",
"QtQtQtQtQtQtQtQtQtQtQt#M#N#O#P.9#Q#R#SQtQtQtQtQtQtQtQtQtQtQtQtQt",
"QtQtQtQtQtQtQtQtQtQt#T#U#V#W.j#XQt#Y#Z#0QtQtQtQtQtQtQtQtQtQtQtQt",
"QtQtQtQtQtQtQtQtQtQt#Q#1#2#3#4#5QtQt#6QtQtQtQtQtQtQtQtQtQtQtQtQt",
"QtQtQtQtQtQtQtQtQtQtQtQt#7#8#9a.QtQtQtQtQtQtQtQtQtQtQtQtQtQtQtQt",
"QtQtQtQtQtQtQtQtQtQtQtQta#aaabacadQtQtQtQtQtQtQtQtQtQtQtQtQtQtQt",
"QtQtQtQtQtQtQtQtQtQtQtQtaeafQtagahQtQtQtQtQtQtQtQtQtQtQtQtQtQtQt",
"QtQtQtQtQtQtQtQtQtQtQtQtai#EQtajak.9QtQtQtQtQtQtQtQtQtQtQtQtQtQt",
"QtQtQtQtQtQtQtQtQtQtQtalam.9Qt#QanaoQtQtQtQtQtQtQtQtQtQtQtQtQtQt",
"QtQtQtQtQtQtQtQtQtQtQtapaqQtQtQtarafQtQtQtQtQtQtQtQtQtQtQtQtQtQt",
"QtQtQtQtQtQtQtQtQtQt#QasatQtQtQtauavQtQtQtQtQtQtQtQtQtQtQtQtQtQt",
"QtQtQtQtQtQtQtQtQtQtawaxQtQtQtQtayaz#QQtQtQtQtQtQtQtQtQtQtQtQtQt",
"QtQtQtQtQtQtQtQtQtQtaAaBQtQtQtQt#KaCaDQtQtQtQtQtQtQtQtQtQtQtQtQt",
"QtQtQtQtQtQtQtQtQtQtaEaFQtQtQtQtQtaGaHQtQtQtQtQtQtQtQtQtQtQtQtQt",
"QtQtQtQtQtQtQtQtQtQtQtQtQtQtQtQtQtaIaJQtQtQtQtQtQtQtQtQtQtQtQtQt"};
