/* XPM */
static char *dummy[]={
"32 32 270 2",
"b5 c #fb6584",
"bZ c #fb6a87",
"bX c #fb6f8a",
"bP c #fb758e",
"by c #fb7a8d",
"aA c #fb7d87",
".L c #fb7f72",
"bp c #fb7f92",
".D c #fb8377",
".Y c #fb867d",
"a0 c #fb8695",
"#l c #fb8a85",
"#D c #fb8b8b",
"ck c #fb8ca9",
"bh c #fb8d9c",
"ci c #fb8daa",
"#I c #fb9190",
"aS c #fb919c",
"#0 c #fb9799",
"#v c #fb9998",
".A c #fb9d91",
"bD c #fbacba",
"b. c #fbadb8",
"#. c #fbb4b0",
"bn c #fbb5c0",
"#g c #fbb6b2",
"#A c #fbb6b6",
"#c c #fbb9b6",
".Z c #fbbab5",
".6 c #fbbbb7",
"bA c #fbbbc5",
".3 c #fbbeba",
"#m c #fbbfbc",
"aQ c #fbc3c9",
"b7 c #fbc5d2",
"#Y c #fbc7c8",
"aM c #fbc7cd",
"c# c #fbc9d4",
"#U c #fbcccd",
"bS c #fbd0d9",
"bV c #fbd4dc",
"bG c #fbd9df",
"bx c #fc4662",
"aC c #fc5966",
"aa c #fc5e63",
"az c #fc5e6b",
"#9 c #fc6369",
"ba c #fc6378",
".5 c #fc675d",
".4 c #fc6960",
"bi c #fc697d",
"ay c #fc6a75",
"#r c #fc6e6a",
"#f c #fc6f68",
"aD c #fc6f7a",
"#k c #fc716b",
"#M c #fc7474",
"#y c #fc7979",
"cb c #fc7a99",
"a. c #fc7e82",
"bT c #fc7e95",
"aB c #fc808b",
"a# c #fc8185",
".x c #fc8374",
".l c #fc8675",
".i c #fc8878",
".O c #fc8b81",
"a5 c #fc8d9a",
"#e c #fc8f8a",
"bb c #fc93a2",
"aJ c #fc97a1",
".G c #fc9b90",
"bd c #fc9caa",
"ca c #fc9cb1",
"#R c #fc9d9f",
".J c #fc9e94",
"a3 c #fc9ea8",
"b6 c #fc9fb3",
"#t c #fca09d",
"#s c #fca09e",
".o c #fca196",
".b c #fca293",
"bg c #fca3b0",
"#u c #fca5a3",
"bN c #fca6b5",
"#G c #fca7a6",
"bj c #fca7b2",
"#x c #fcb0af",
"aX c #fcb3bc",
"#p c #fcb6b4",
"#j c #fcb7b4",
"a8 c #fcbac2",
"#L c #fcbcbc",
"bI c #fcc1cc",
"bf c #fccfd6",
".R c #fcd2ce",
"be c #fcd2d8",
".W c #fcd5d2",
".m c #fcd9d4",
"a7 c #fcdade",
".2 c #fcdbd8",
".h c #fcdcd7",
"a4 c #fcdde1",
"bL c #fcdde2",
".8 c #fcdedc",
"#K c #fcdede",
"aY c #fcdfe3",
"a1 c #fce0e3",
"#H c #fce2e1",
"#B c #fce3e3",
"#T c #fceaeb",
"aL c #fcebed",
".H c #fcecea",
".# c #fcedeb",
"am c #fcf5f5",
"ch c #fd3868",
"cf c #fd3c6a",
"a6 c #fd4056",
"b2 c #fd4066",
"bq c #fd4360",
"bF c #fd4363",
"aK c #fd4455",
"aP c #fd4456",
"bu c #fd4462",
"bM c #fd4565",
"ao c #fd4651",
"aN c #fd4657",
"bB c #fd4662",
"bR c #fd4668",
"bt c #fd4764",
"aH c #fd4859",
"#2 c #fd494c",
"bl c #fd4965",
"bW c #fd496a",
"#S c #fd4b4e",
"#J c #fd4c4c",
"#C c #fd4d4d",
"#X c #fd4d50",
"aw c #fd4d5c",
"#V c #fd4e51",
"#O c #fd5054",
"#6 c #fd5157",
"aF c #fd5361",
".K c #fd5745",
"ad c #fd575d",
".r c #fd5844",
".1 c #fd584d",
".y c #fd5945",
".9 c #fd5a50",
"#n c #fd5a53",
"#a c #fd5d56",
"b1 c #fd5d7d",
"ar c #fd5e67",
".Q c #fd5f50",
"ai c #fd636d",
"b4 c #fd6382",
"aE c #fd6975",
"a9 c #fd697a",
"#8 c #fd6c72",
"ac c #fd6d72",
"ax c #fd6f7a",
"aV c #fd6f80",
"ab c #fd7277",
"#w c #fd7370",
"#7 c #fd7378",
"cd c #fd7494",
"bU c #fd7790",
"aj c #fd7d84",
".s c #fd8273",
"aq c #fd8289",
".d c #fd9381",
".c c #fd9382",
"a2 c #fd9faa",
".e c #fda192",
"#F c #fda7a8",
".t c #fda89e",
".w c #fda99e",
"c. c #fdb9c8",
"bJ c #fdbbc6",
".u c #fdbcb3",
".v c #fdbcb4",
".f c #fdc0b6",
"b8 c #fdc0cd",
".a c #fdc1b7",
".T c #fdc7c2",
"#h c #fdd9d6",
"#i c #fdd9d7",
".U c #fddfdd",
".S c #fde1de",
"#E c #fde4e4",
"aG c #fde4e6",
"ae c #fde5e6",
"#Q c #fdeaea",
"au c #fdeaec",
"#4 c #fdebec",
".g c #fdece9",
".I c #fdeeec",
"#Z c #fdeeef",
"#1 c #fdefef",
"aR c #fdeff1",
"aT c #fdf0f1",
"bC c #fdf1f3",
"#o c #fdf4f3",
"bH c #fdf4f5",
"bK c #fdf4f6",
"ap c #fdf5f5",
"bY c #fdf6f8",
".M c #fdf7f6",
".C c #fdf8f8",
"br c #fdf8f9",
"an c #fdf9f9",
"aU c #fdf9fa",
"bz c #fdfafa",
"ak c #fdfafb",
"bw c #fdfcfc",
"cl c #fdfcfd",
"bO c #fdfdfd",
"cc c #fe3161",
"b9 c #fe335f",
"bE c #fe395b",
"bm c #fe3a59",
"bc c #fe3c57",
"b# c #fe3d57",
"b3 c #fe3d63",
"aW c #fe3f55",
"aI c #fe4052",
"aO c #fe4153",
"aZ c #fe4156",
"av c #fe4251",
"al c #fe4450",
"ag c #fe4550",
"#5 c #fe474d",
"#P c #fe494b",
"#W c #fe494c",
"#z c #fe4a4a",
"#q c #fe4c49",
"#b c #fe4f47",
".0 c #fe5045",
".q c #fe5542",
".z c #fe5643",
".F c #fe5644",
".p c #fe5743",
".j c #fe5841",
"ah c #fe5963",
"as c #fe5f69",
".X c #fe6152",
"cj c #fe6f93",
"at c #feddde",
"af c #fee2e4",
"bk c #fef4f6",
"bv c #fef5f7",
"## c #fef6f6",
"bs c #fef8f9",
"ce c #fef9fb",
".B c #fefaf9",
"#3 c #fefafa",
".n c #fefbfa",
"bo c #fefbfc",
"#d c #fefcfc",
"#N c #fefcfd",
".V c #fefdfd",
".7 c #fefdfe",
".N c #fefefe",
"cg c #ff3162",
"b0 c #ff365d",
"bQ c #ff375b",
".P c #ff5343",
".E c #ff5443",
".k c #ff5740",
"Qt c #ffffff",
"QtQtQtQtQtQtQtQtQtQtQtQtQtQtQtQtQtQtQtQtQtQtQtQtQtQtQtQtQtQtQtQt",
"QtQtQtQtQtQtQtQtQtQtQtQtQtQtQtQtQtQtQtQtQtQtQtQtQtQtQtQtQtQtQtQt",
"QtQtQtQtQtQtQtQtQtQtQtQtQtQtQtQtQtQtQtQtQtQtQtQtQtQtQtQtQtQtQtQt",
"QtQtQtQtQtQtQtQtQtQtQtQtQtQtQtQtQtQtQtQtQtQtQtQtQtQtQtQtQtQtQtQt",
"QtQtQtQtQtQtQtQtQtQtQtQt.#.a.b.c.d.e.f.gQtQtQtQtQtQtQtQtQtQtQtQt",
"QtQtQtQtQtQtQtQtQtQt.h.i.j.k.k.k.k.k.k.j.l.mQtQtQtQtQtQtQtQtQtQt",
"QtQtQtQtQtQtQtQt.n.o.p.q.r.s.t.u.v.w.x.y.q.z.A.BQtQtQtQtQtQtQtQt",
"QtQtQtQtQtQtQt.C.D.E.F.G.HQtQtQtQtQtQt.I.J.K.E.L.MQtQtQtQtQtQtQt",
"QtQtQtQtQtQt.N.O.P.Q.RQtQt.N.S.T.T.U.VQtQt.W.X.P.Y.VQtQtQtQtQtQt",
"QtQtQtQtQtQt.Z.0.1.2Qt.N.3.4.0.0.0.0.5.6.7Qt.8.9.0#.QtQtQtQtQtQt",
"QtQtQtQtQt###a#b#cQt#d#e#b#f#g#h#i#j#k#b#l.nQt#m#b#n#oQtQtQtQtQt",
"QtQtQtQtQt#p#q#r.VQt#s#q#t#dQtQtQtQt.V#u#q#vQt.N#w#q#xQtQtQtQtQt",
"QtQtQtQtQt#y#z#AQt#B#C#DQtQt#E#F#G#HQtQt#I#J#KQt#L#z#MQtQtQtQtQt",
"QtQtQtQt#N#O#P#QQt#R#S#TQt#U#V#W#W#X#YQt#Z#X#0Qt#1#2#X#3QtQtQtQt",
"QtQtQtQt#4#5#6.NQt#7#8QtQt#9#5a.a##5aa.NQtabacQtQtad#5aeQtQtQtQt",
"QtQtQtQtafagahQtQtaiajQtakagalamanaoalapQtaqarQtQtasagatQtQtQtQt",
"QtQtQtQtauavaw.NQtaxayQtQtazavaAaBavaC.NQtaDaEQtQtaFavaGQtQtQtQt",
"QtQtQtQt#daHaIauQtaJaKaLQtaMaNaOaOaPaQQtaRaNaSQtaTaOaPaUQtQtQtQt",
"QtQtQtQtQtaVaWaXQtaYaZa0QtQta1a2a3a4QtQta5a6a7Qta8aWa9QtQtQtQtQt",
"QtQtQtQtQtb.b#ba.7QtbbbcbdQtQtbebfQtQtbgb#bhQt.Nbib#bjQtQtQtQtQt",
"QtQtQtQtQtbkblbmbnQtbobpbqbrbsbtbubvbwbxbybzQtbAbmbBbCQtQtQtQtQt",
"QtQtQtQtQtQtbDbEbFbGQt.NbHQtbIbEbEbJQtbK.NQtbLbMbEbNQtQtQtQtQtQt",
"QtQtQtQtQtQtbObPbQbRbSQtQtQtbTbQbQbUQtQtQtbVbWbQbXbwQtQtQtQtQtQt",
"QtQtQtQtQtQtQtbYbZb0b1QtQtbsb2b0b0b3bvQtQtb4b0b5bKQtQtQtQtQtQtQt",
"QtQtQtQtQtQtQtQtaUb6b7QtQtb8b9b9b9b9c.QtQtc#cabrQtQtQtQtQtQtQtQt",
"QtQtQtQtQtQtQtQtQtQtQtQtQtcbcccccccccdQtQtQtQtQtQtQtQtQtQtQtQtQt",
"QtQtQtQtQtQtQtQtQtQtQtQtcecfcgcgcgcgchbYQtQtQtQtQtQtQtQtQtQtQtQt",
"QtQtQtQtQtQtQtQtQtQtQtQtbOcicjcjcjcjckclQtQtQtQtQtQtQtQtQtQtQtQt",
"QtQtQtQtQtQtQtQtQtQtQtQtQtQtQtQtQtQtQtQtQtQtQtQtQtQtQtQtQtQtQtQt",
"QtQtQtQtQtQtQtQtQtQtQtQtQtQtQtQtQtQtQtQtQtQtQtQtQtQtQtQtQtQtQtQt",
"QtQtQtQtQtQtQtQtQtQtQtQtQtQtQtQtQtQtQtQtQtQtQtQtQtQtQtQtQtQtQtQt",
"QtQtQtQtQtQtQtQtQtQtQtQtQtQtQtQtQtQtQtQtQtQtQtQtQtQtQtQtQtQtQtQt"};
