/* XPM */
static char *dummy[]={
"32 32 347 2",
"as c #000000",
".c c #00356a",
"aF c #00376f",
"a8 c #003973",
"aT c #003d7a",
"a2 c #003e7c",
"aU c #004993",
"a3 c #004b96",
"aG c #004c99",
"a9 c #0052a4",
"am c #0055aa",
"aH c #0056a7",
"al c #01356a",
"#Y c #01366a",
".h c #01366b",
"bQ c #02366b",
".r c #02376b",
"#S c #033468",
"bj c #03366a",
".I c #03376b",
".i c #03376c",
"#l c #04386c",
"aI c #045c9c",
".M c #05396d",
"#B c #063367",
".U c #06396d",
".j c #063a6d",
"#D c #063a6e",
"#I c #073a6e",
"d# c #083b6e",
"dn c #083b6f",
".C c #093265",
"#X c #093c6f",
"ay c #09648e",
"#w c #0a0a0a",
"cs c #0a3d70",
"bZ c #0b3e71",
"cv c #0c3b6b",
"du c #0c3e70",
"cu c #0c3f71",
"#p c #0d3f71",
"#g c #0e4072",
"a# c #0e6c81",
"cV c #0f4073",
".4 c #0f4172",
"cR c #0f4173",
".0 c #104173",
".3 c #104273",
".7 c #114274",
"cU c #114374",
"cM c #124374",
"cD c #134475",
"bi c #143f6b",
"#m c #144576",
"cW c #15406b",
".D c #154676",
"at c #15776e",
".H c #164676",
"#k c #164677",
"bR c #164777",
"an c #16796a",
".N c #174777",
"dv c #174778",
".T c #184878",
".Q c #194979",
"da c #1a436c",
"dt c #1b4a79",
"dw c #1b4a7a",
"a. c #1b4b7a",
"bE c #1d1d1d",
"#R c #1d2e5d",
"ck c #1d446c",
"bk c #1d4c7b",
"a1 c #1e1e1e",
".s c #1f4d7c",
".u c #22507e",
".R c #255280",
"#E c #265380",
"#x c #272727",
".P c #275480",
"#H c #275481",
"aY c #282828",
".B c #282c59",
"bw c #284a6d",
"c7 c #295582",
"dk c #2c5883",
"ao c #2c9b2d",
"bP c #2d5984",
"ae c #303030",
"aa c #30a124",
"cS c #315c86",
"#V c #315c87",
".O c #325c87",
"#C c #325d87",
"au c #32a51c",
".S c #335d87",
"cT c #335e88",
"a6 c #343434",
"#F c #365f89",
"#G c #36608a",
".E c #38618b",
"by c #39628b",
".G c #3c648d",
".L c #3d2850",
"c. c #3d556f",
"c2 c #3d658d",
"#q c #3db600",
"#i c #40678f",
"ct c #40688f",
"d. c #416990",
"#o c #426990",
"ab c #44b800",
"#n c #456b92",
"#h c #476d93",
"#j c #476d94",
"c5 c #476e93",
"#9 c #486e94",
"#3 c #4a4a4a",
"dm c #4a7095",
"c6 c #4c7196",
"#U c #4e7398",
"di c #4f7498",
"#A c #512448",
"#P c #515151",
"aS c #516880",
"aj c #516f8c",
"bl c #517394",
".t c #517599",
"b. c #51769b",
"a4 c #51779c",
"ar c #525252",
"b0 c #52708e",
"dj c #54789b",
"bF c #575757",
"#v c #585858",
".5 c #587b9e",
"aV c #588288",
"bN c #596471",
"aD c #5a5e63",
"#6 c #5b2143",
"bz c #5b748e",
"aE c #5b7691",
".2 c #5b7da0",
"cX c #5c6571",
"#Z c #5cc100",
"#7 c #5e768e",
"#T c #5e7a95",
".1 c #5e7fa1",
"bY c #5f6772",
"aA c #5f695a",
".6 c #6182a3",
"bS c #6484a4",
"ca c #65696e",
"ak c #656c73",
"aJ c #659664",
".b c #661f3f",
"#8 c #676f76",
"aZ c #686868",
"aB c #696969",
"bO c #6a89a8",
"c8 c #6b8aa8",
"ac c #6bc700",
"c4 c #6d8baa",
"a7 c #6e7882",
".q c #702240",
"db c #706f73",
"#M c #707070",
"bG c #717171",
"c# c #72818f",
"cN c #728fad",
".Z c #741c39",
"bp c #757575",
".F c #7591ae",
"c3 c #7793af",
"cb c #796f6f",
"#O c #797979",
"c9 c #7995b1",
"#f c #7a1b37",
"cE c #7a95b1",
"cO c #7a96b1",
"az c #7ab75b",
"dh c #7d98b3",
".g c #7e1b36",
"#W c #7e99b4",
"#N c #7f7f7f",
"cF c #829cb6",
"bH c #838383",
"cP c #847a75",
"ai c #856477",
"bc c #868686",
"af c #876565",
"dg c #87a0b9",
"bx c #8aa2ba",
"dl c #8aa2bb",
".8 c #8ad300",
"#4 c #8c6767",
"#J c #8ed400",
"aQ c #8f8f8f",
"aN c #929292",
"bd c #959595",
"ap c #95d700",
"bq c #969696",
"bA c #989898",
"cw c #998577",
"#r c #9bd900",
"ax c #9d9d9d",
"aC c #a0a0a0",
"aO c #a3a3a3",
"a5 c #a4a4a4",
"av c #a4dd47",
"bh c #a59587",
"aR c #a6a6a6",
"b1 c #a8a8a8",
"aw c #aaaaaa",
"dx c #ad9078",
"#2 c #adadad",
"do c #b09179",
"br c #b1b1b1",
"be c #b2b2b2",
"cG c #b39379",
"aK c #b3b3b3",
"ce c #b40f5a",
"b2 c #b8b8b8",
"ah c #b95961",
"cc c #b99696",
"bX c #ba967a",
"#1 c #bbbbbb",
"aL c #bdbdbd",
"aP c #bebebe",
"bu c #c1a389",
"bf c #c3a1a1",
"aW c #c3c3c3",
"co c #c52862",
"a0 c #c5c5c5",
"b9 c #c89e7b",
"cA c #cb3366",
"bL c #cb9e93",
"#e c #ce1822",
"aM c #cecece",
"bK c #cf8f8f",
"ds c #d23d69",
"#5 c #d25e5e",
".f c #d40811",
"bM c #d4a47c",
".p c #d50c15",
"cr c #d5466a",
"bB c #d8abab",
"aq c #d9f047",
"cC c #da486d",
"#z c #dc070e",
"df c #dc4c6e",
"b# c #dcb5b5",
"#s c #dcf100",
"cd c #dd4c6e",
"bI c #ddb5b5",
"cq c #de4f6f",
".9 c #def200",
"bb c #dfadad",
"ag c #e05151",
"b3 c #e19a9a",
"cB c #e25471",
"bg c #e2abab",
"#Q c #e35e5e",
"bs c #e3b4b4",
"de c #e45772",
".Y c #e70409",
"dp c #e8ae7e",
"bm c #e9b3b3",
"bJ c #eaa8a8",
"cx c #eab07e",
"ba c #ebb3b3",
"b5 c #ed6476",
"bD c #edb2b2",
"ad c #edf800",
"cH c #f0b37e",
"cn c #f16b78",
"cz c #f27f79",
"c1 c #f36d79",
"bt c #f4a8a8",
"bC c #f4b1b1",
".A c #f60103",
"cL c #f6727b",
"b4 c #f6838b",
"bo c #f6b1b1",
"#K c #f8fc00",
"c0 c #f9777d",
"dc c #f9b87f",
"cK c #fa797d",
"ch c #fc7b7e",
"cp c #fc7c7e",
"cg c #fd7d7f",
".a c #ff0000",
".o c #ff0600",
".z c #ff0700",
".y c #ff1f00",
".K c #ff2f00",
"#y c #ff3333",
".n c #ff3400",
".# c #ff4200",
".e c #ff4700",
"#d c #ff4747",
"#b c #ff6700",
".d c #ff6800",
"#c c #ff6b47",
".m c #ff6c00",
".X c #ff6e00",
"Qt c #ff7700",
"#a c #ff8000",
"b6 c #ff8080",
"ci c #ff8180",
"cQ c #ff8280",
".x c #ff8300",
".l c #ff8700",
"cJ c #ff8780",
"#u c #ff8800",
"dr c #ff8e80",
"bU c #ff8e8b",
"cZ c #ff8f80",
"cj c #ff9280",
"cm c #ff9380",
"bV c #ff9c80",
"cf c #ffa180",
"b7 c #ffa580",
"cy c #ffa880",
"dd c #ffa980",
"dq c #ffaa80",
"cl c #ffab80",
".w c #ffac00",
"#t c #ffad00",
"cI c #ffae80",
"bn c #ffb0b0",
"cY c #ffb180",
".k c #ffb200",
"bT c #ffb2b2",
"dy c #ffb380",
"b8 c #ffb480",
"bW c #ffb680",
"bv c #ffbb80",
".J c #ffc300",
"## c #ffc800",
"#L c #ffd547",
".W c #ffdb00",
"#. c #fff600",
".V c #fff700",
".v c #ffff00",
"#0 c #ffff47",
"aX c #ffffff",
"QtQt.#.a.a.a.b.c.c.c.c.c.c.c.c.c.c.c.c.c.c.c.c.c.c.c.c.c.c.c.c.c",
"QtQt.d.e.a.a.f.g.h.c.c.c.c.c.c.c.c.c.c.c.c.c.c.c.c.c.i.j.i.c.c.c",
".k.lQt.m.n.o.a.p.q.c.c.c.c.c.c.c.c.c.c.c.c.c.c.c.c.r.s.t.u.r.c.c",
".v.w.xQtQt.y.z.a.A.B.C.c.c.c.c.c.c.c.c.c.c.c.c.c.r.D.E.F.G.H.I.c",
".v.v.JQtQtQt.K.a.a.a.L.c.c.c.c.c.c.c.c.c.c.c.c.M.N.O.P.Q.R.S.T.U",
".v.v.V.WQtQt.X.e.a.a.Y.Z.c.c.c.c.c.c.c.c.c.c.c.0.1.2.3.h.4.5.6.7",
".8.9.v#.###aQt#b#c#d#d#e#f.c.c.c.c.c.c.c#g#h#h.t#i#j#k#l#m#n#o#p",
"#q#r#s.v.v#t#uQt#v#w#x#y#z#A#B.c.c.c.c.c#C#x#w#v#D#E#F#j#G#H#I.h",
"#q#q#J#K.v.v#L#v#M#N#O#P#Q.a#R#S.c.c.c#T#P#O#N#M#v#U#V#W#F#X#Y.c",
"#q#q#q#Z.v.v#0#w#N#1#2#3#4#5.a#6.c.c#7#8#3#2#1#N#w#9#pa.#g.c.c.c",
"a#aa#qabacad#0#w#N#1#1#1aeafagahaiajakae#1#1#1#N#w#h.cal.c.c.c.c",
"amanao#q#qapaq#w#N#1#1#1#1arasasasasar#1#1#1#1#N#w#h.c.c.c.c.c.c",
"amamatau#q#qav#w#N#1#1#1#1awaxaxaxaxaw#1#1#1#1#N#w#h.c.c.c.c.c.c",
"amamamay#qazaAaBaC#1#1#1#1#1#1#1#1#1#1#1#1#1#1aCaBaDaE.c.c.c.c.c",
"aFaGamaHaIaJasaK#1#1aLaMaNaO#1#1#1#1#1aPaMaQaR#1aKasaS.c.c.c.c.c",
".caTaUamamaVasaK#1#1aWaXaYaZ#1#1#1#1#1a0aXa1#M#1aKasaS.c.c.c.c.c",
".c.ca2a3ama4asaK#1#1a5asasaZ#1#1#1a6araxasas#M#1aKasa7.c.c.c.c.c",
".c.c.ca8a9b.asaKb#babbbcbcaO#1#1#1bdaxbebcbcbfbabgasbhbibj.c.c.c",
"bk#gal.c.cblasaKbmbnbo#1bpbq#1#1aZaO#1#2aZbrbsbnbtasbubvbw.c.c.c",
"bxby.r.c.cbzaYbAbBbCbD#1bEbFaxaxasbGaxbHasa5bIbJbKaYbLbvbMbN.c.c",
"bObPbQ.c.cbRbS#w#N#1#1#1bEasasasasasasasasa5#1#N#wbTbUbVbWbXbY.c",
"bZ.M.c.c.c.c.sb0bF#v#1#1b1a5a5a5a5a5a5a5a5b2#vbFb3b4b5b6b7b8b9c.",
".c.c.c.c.c.c.c.cc#ca#3#3#3#3#3#3#3#3#3#3#3#3cbccb6cdceb6b6cfbvbv",
".c.c.c.c.c.c.c.c.cc##P#P#P#P#P#P#P#P#P#P#P#Pccb6b6cgchb6b6cicjbv",
".c.c.c.c.cal#l#l.h.c.c.c.c.c.c.cckbYbvclcmcncocpb6b6b6b6b6cqcrcj",
".c.c.c.c.ccs.Gctcu.c.c.c.c.c.c.c.ccvcwcxcyczcAcpb6b6b6b6b6cBcCb6",
".c.c.c.c.ccDcEcF.T.c.c.c.c.c.c.c.c.c.ccGcHcIcJb6b6cKcLb6b6b6b6b6",
".c.c.c.c.ccMcNcO#k.c.c.c.c.c.c.c.c.c.c.ccPbvbvcQb6cdceb6b6b6b6b6",
".c#Y#X.7cRcRcScTcUcV.7#X.h.c.c.c.c.c.c.ccWcXbvcYcZc0c1b6b6b6b6b6",
".c.Mc2c3c4bPc5c6c7c8c9d.d#.c.c.c.c.c.c.c.cdadbdcddcmb6b6b6dedfb6",
".c.M#ndgdh#VdidjdkcOdldmdn.c.c.c.c.c.c.c.c.c.cdodpdqdrb6b6dfdsb6",
".c.h#gdt.TcucR.3dudvdwcR.r.c.c.c.c.c.c.c.c.c.c.cdxbvdyb6b6b6b6b6"};
