/* XPM */
static char *dummy[]={
"32 32 621 2",
"Qt c None",
".r c #000000",
".h c #000000",
".C c #000000",
"fd c #000000",
"gH c #000000",
"cn c #000200",
"eM c #000000",
".R c #000000",
"gm c #000000",
"hH c #000000",
".# c #000104",
"#x c #000000",
"#i c #040000",
"gI c #000000",
"## c #000000",
".S c #040101",
"hz c #000000",
".Y c #000207",
"dQ c #000000",
"gn c #000000",
"fE c #000000",
"dk c #000000",
"cR c #030a00",
"hO c #000000",
"hp c #000000",
"f2 c #000000",
".q c #0a0203",
"hI c #000000",
"hc c #000000",
"#a c #0b0202",
"fF c #000000",
".c c #000411",
".p c #010814",
"ah c #000000",
"gZ c #000000",
"#j c #010916",
"#V c #000000",
"fe c #000000",
"hd c #000000",
".b c #01071a",
"gG c #000000",
"a2 c #041925",
"hN c #000000",
"aE c #01080d",
"eN c #000000",
"#y c #160604",
"g0 c #000000",
"gl c #000000",
"hG c #000000",
".i c #040d25",
"ej c #000000",
"gJ c #000000",
"f1 c #000000",
"hy c #000000",
"fc c #000600",
"dR c #000000",
"cS c #0a0200",
"go c #000000",
"#W c #270d0a",
"hP c #010200",
"fD c #000100",
"ho c #000200",
"dl c #030000",
"f3 c #050402",
".B c #041b3f",
"br c #133b05",
".F c #2c100f",
"hJ c #040900",
".s c #0c1c41",
"hb c #030a00",
"hQ c #0b1500",
"fG c #110b05",
"ai c #3a1511",
"hA c #0a1600",
"a3 c #370d08",
"gY c #061400",
".g c #081d4e",
"ag c #020f1c",
"#w c #031630",
"ff c #211105",
"bU c #245908",
"#U c #031326",
"he c #1e1e05",
"hq c #112700",
".X c #4a1e1a",
"gF c #092200",
".G c #173065",
"hM c #172e00",
".a c #122361",
"dj c #0e5300",
"eO c #391703",
"bs c #421008",
"aF c #53211a",
"co c #4e1102",
"bV c #481005",
"g1 c #402a14",
".D c #512b2c",
"gk c #0b3300",
"eL c #004800",
"dP c #004b00",
"ei c #004b00",
"hF c #204400",
"cm c #367813",
"ek c #511b00",
"gK c #5d4222",
"#h c #6f3127",
"f0 c #0c4500",
".Z c #25488b",
"hx c #2a5e00",
".T c #6c3b39",
"dS c #6b2100",
".o c #1c4492",
"gp c #805d31",
"cQ c #4a9521",
".Q c #083288",
"fC c #0a5900",
"#. c #0a3c8d",
"hn c #327900",
"dm c #802300",
".d c #3b539e",
"#b c #844b47",
"#H c #683844",
"f4 c #a3723a",
"#k c #3661ac",
"fb c #056900",
"aD c #1f73b0",
"hK c #57a109",
"cT c #8e2100",
"a1 c #2792d5",
"ha c #369000",
"fH c #bf7b39",
"#z c #9a5a53",
".j c #4e6cba",
"hB c #56b300",
"gX c #359e00",
"#I c #4677c5",
"fg c #d7772c",
"af c #1268c2",
".A c #336cc7",
"bq c #29a9d6",
"#X c #aa655c",
"#T c #1163c4",
"hr c #57bf00",
"gE c #31a700",
"hL c #75d114",
".f c #4c6cc5",
".t c #5c7fce",
".E c #a36b6b",
"eP c #ea6816",
"#v c #105ec8",
"g2 c #d89332",
"hf c #54c600",
"gj c #2aab00",
"aj c #b66c61",
"hE c #68d600",
"el c #f25400",
"gL c #f8a04b",
"fZ c #21ab00",
"hw c #61d600",
"bT c #8ad95f",
".H c #668dda",
"aG c #bb6e62",
".W c #bc817d",
"dT c #ea4a00",
"gq c #fdab53",
"eh c #009700",
"eK c #019800",
"eJ c #049900",
"fa c #0c9f00",
".9 c #0e53cb",
"f# c #0fa100",
"#u c #105ed2",
"#S c #1269d8",
"dO c #12a106",
"eg c #13a00c",
"eI c #16a20d",
"fB c #17a600",
"fA c #1aa800",
"f. c #1ba609",
".8 c #1e6ad6",
"ae c #1e83e6",
"fz c #21ab05",
".P c #2268d4",
"#R c #2273db",
"fY c #24af00",
"fX c #29b102",
"gi c #2fb600",
"gh c #31b800",
"#t c #3279db",
"c. c #35a4d3",
"bR c #36bcd6",
"bi c #37aaae",
"cI c #37c3e7",
"bI c #39a4e2",
"ce c #39bcf5",
"cC c #3aa7be",
"gD c #3abd00",
"cg c #3bc0ff",
"gC c #3cbe00",
"bM c #3db7fc",
"bQ c #3ebdff",
"ch c #3ec4c0",
"cf c #3fc0ff",
"cB c #40aaf5",
"bp c #40baff",
"bh c #41a5ed",
"bP c #41bdff",
"#Q c #4395e9",
"bo c #43baff",
"bO c #43bcff",
"gW c #44c400",
"bn c #45baff",
"bN c #45bcff",
"bj c #46b1fa",
"a0 c #46b6fd",
"gV c #46c500",
"bm c #47b9fe",
"aZ c #49b5fc",
"bl c #49b8fd",
"aC c #4aadf6",
"b9 c #4baff7",
"cJ c #4bcda8",
"ad c #4ca2ef",
"aY c #4cb4fa",
"bk c #4cb6fc",
"b7 c #4ea7f1",
"aX c #4eb2f8",
"h# c #4ecb00",
"b8 c #50acf5",
"bH c #50aef5",
"h. c #50cc00",
"aB c #51adf5",
"aW c #51b0f7",
"g3 c #51cc00",
"aV c #52aef5",
"bL c #52c285",
"bG c #53abf3",
"aA c #53acf3",
"aU c #54acf3",
"aO c #5564a3",
"bF c #55a7f0",
"bg c #55a9f1",
"az c #55aaf2",
"gN c #55ca11",
"aT c #56aaf1",
"#6 c #5789d8",
"bD c #57a0eb",
"bE c #57a4ee",
"bf c #57a6ef",
"ac c #57a7ef",
"ay c #57a9f0",
".7 c #5896e5",
"#s c #589ce8",
"aS c #58a7ef",
"be c #59a3ec",
"ax c #59a7ee",
"hm c #59d200",
"as c #5a92e1",
"ab c #5aa5ed",
"gU c #5acc17",
"g4 c #5acf0b",
"hl c #5ad200",
"hg c #5ad300",
".O c #5b93e2",
"bd c #5ba0ea",
"aw c #5ba5ed",
"dN c #5bce14",
"#P c #5ca2eb",
"aa c #5ca4ec",
"gB c #5ccb23",
"di c #5ccc20",
"av c #5da3eb",
"ba c #5e5d91",
"aP c #5e97e3",
"bb c #5e99e5",
"bc c #5e9de7",
"aR c #5e9fe9",
"a# c #5ea2eb",
"hh c #5ed404",
"#r c #5f9fe8",
"au c #5fa1e9",
"#O c #5fa1ea",
"ef c #5fd113",
"a. c #60a1e9",
"g9 c #60d115",
".n c #6187d9",
"aQ c #619de6",
"#N c #61a0e8",
".6 c #629be5",
"#q c #629ee7",
"#9 c #629fe7",
"#M c #639fe7",
"hv c #63d900",
"at c #649ce6",
"#p c #649de6",
"gg c #64cd2f",
"hs c #64d900",
".z c #6593df",
".N c #6598e2",
".5 c #659be4",
"#8 c #659de6",
"cd c #65d26e",
"#L c #669de6",
"hk c #66d611",
".M c #6798e2",
".4 c #679be4",
"#7 c #679ce4",
"#o c #679ce5",
"ar c #685c8a",
"#K c #689ce4",
"#n c #699ce4",
"bC c #6a77a7",
".y c #6a95df",
".L c #6a98e1",
".3 c #6a9ae3",
"#J c #6a9be3",
"eH c #6ad421",
".0 c #6b94df",
"#m c #6b9be3",
".K c #6c98e0",
"#l c #6c99e1",
".2 c #6c9ae2",
"fW c #6cd133",
".x c #6d95df",
".1 c #6e99e1",
".w c #6f96de",
".J c #6f98e0",
".I c #7197df",
"fy c #71d433",
"e9 c #71d62d",
".m c #7294dc",
".v c #7296de",
"bJ c #73cc71",
"ee c #73e109",
".u c #7496dd",
".l c #7594dc",
".k c #7795dc",
"cH c #77de59",
".e c #7992da",
"bS c #7bd669",
"ht c #7bdf25",
"hC c #7be219",
"eG c #7ce900",
"b6 c #7e7691",
"#5 c #825a74",
"ed c #82e719",
"eF c #83ed00",
"dM c #85e03c",
"c# c #88d868",
"eE c #89f200",
"hD c #8ae633",
"dh c #8bde55",
"e8 c #8bf203",
"ci c #8cdf63",
"da c #8de946",
"ec c #8fec27",
"c6 c #90df38",
"eD c #90f603",
"e7 c #90f700",
"cP c #91dd63",
"dL c #91e548",
"cl c #92dd67",
"dg c #92e159",
"hu c #93e54d",
"df c #96e458",
"dK c #96e848",
"cD c #97e35c",
"cK c #97e65b",
"e6 c #97fb00",
"dz c #98e129",
"cO c #98e169",
"eC c #99f90a",
"cA c #9a787a",
"d5 c #9adf1d",
"de c #9ae658",
"dJ c #9aeb48",
"eb c #9af032",
"fx c #9afa09",
"cN c #9ce369",
"dd c #9de958",
"e5 c #9dfe04",
"dI c #9eed48",
"bt c #9f2915",
"cM c #9fe568",
"db c #9fec4f",
"eB c #9ffc0f",
"fw c #9ffe07",
"cL c #a1e768",
"dc c #a1eb58",
"dH c #a1f048",
"ea c #a1f337",
"ck c #a2e379",
"ex c #a3db26",
"e4 c #a3ff11",
"e# c #a4f537",
"eA c #a4fe15",
"cj c #a5e579",
"dG c #a5f247",
"fv c #a6ff19",
"dF c #a7f447",
"e. c #a7f837",
"ez c #a7fe1b",
"e3 c #a8ff1f",
"bW c #a9280b",
"bK c #a9ea73",
"d# c #a9f057",
"fV c #a9fc2a",
"ey c #a9ff20",
"dE c #aaf547",
"d9 c #aafa37",
"cG c #abef65",
"d. c #abf257",
"dD c #abf647",
"e1 c #abfb30",
"cc c #aced6f",
"c9 c #acf357",
"d8 c #acfb37",
"e2 c #acff2a",
"c7 c #adf357",
"dC c #adf747",
"dA c #adf846",
"dB c #adf847",
"d6 c #adfd33",
"fu c #adff2b",
"a4 c #ae4d3c",
"cF c #aef067",
"c8 c #aef457",
"d7 c #aefc37",
"gt c #afeb7e",
"cE c #aff167",
"fU c #afff30",
"cb c #b1ee77",
"bX c #b23417",
"bu c #b23b20",
"hi c #b2eb85",
"ca c #b2ee77",
"ft c #b4ff3b",
"gf c #b5f952",
"c5 c #b67958",
"cp c #b72904",
"fT c #b7ff45",
"fs c #b8ff48",
"gA c #baf56f",
"cq c #bb2a02",
"fq c #bcfb55",
"fr c #bcff51",
"bY c #bd330e",
"gT c #bef286",
"fS c #beff57",
"ge c #bfff5b",
"gO c #c1eea0",
"aN c #c26957",
".U c #c2918f",
"g8 c #c2f197",
"a5 c #c37262",
"cr c #c43c15",
"aH c #c4786a",
"g5 c #c4eea6",
"fR c #c4ff66",
"ak c #c57f73",
"#Y c #c5857b",
"#A c #c58b83",
"#c c #c58f8b",
"a6 c #c77361",
"#g c #c7897f",
"#d c #c7918b",
".V c #c79693",
"hj c #c7f1a2",
"bv c #c8644b",
"aI c #c87969",
"al c #c87f71",
"#Z c #c8857a",
"#B c #c88b82",
"gd c #c8ff70",
"fQ c #c8ff71",
"cU c #c93200",
"#e c #c9918a",
"#0 c #ca8578",
"#C c #ca8b81",
"#f c #ca9189",
"fO c #cafe77",
"fP c #caff77",
"a7 c #cb745f",
"am c #cb8070",
"cV c #cc3400",
"bZ c #cc4e28",
"aJ c #cc7a67",
"#D c #cc8c80",
"cs c #cd4113",
"aq c #cd7660",
"#1 c #cd8677",
"#E c #cd8c80",
"an c #ce806e",
"#G c #ce897a",
"bw c #cf6e54",
"a8 c #cf745d",
"aK c #cf7a65",
"#2 c #cf8676",
"#F c #cf8c7f",
"gc c #cfff82",
"ao c #d0806d",
"#4 c #d0826f",
"gz c #d0ff85",
"#3 c #d18676",
"aL c #d27b64",
"e0 c #d2c14c",
"ct c #d3400c",
"cW c #d34614",
"bx c #d37053",
"a9 c #d3755b",
"ap c #d3816c",
"gb c #d4ff8f",
"g. c #d4ff91",
"bB c #d56b47",
"aM c #d57b63",
"b. c #d6765a",
"b# c #d7704f",
"by c #d77252",
"dy c #d79834",
"ga c #d7ff97",
"g# c #d7ff98",
"b0 c #d86c49",
"gy c #d8ff9b",
"fp c #d9cd5c",
"dn c #db3e00",
"bz c #db7452",
"fN c #dbd96b",
"cX c #dc5521",
"b1 c #dc704b",
"do c #dd4000",
"bA c #de7753",
"cY c #df4200",
"cu c #df6333",
"gx c #dfffad",
"b2 c #e0734b",
"f9 c #e0e177",
"gS c #e0ffaf",
"gu c #e0ffb0",
"dp c #e14e11",
"gw c #e3ffb7",
"b3 c #e4764b",
"gv c #e4ffb9",
"b5 c #e67242",
"cv c #e67244",
"d4 c #e6a84e",
"b4 c #e7784b",
"gs c #e78823",
"cZ c #e85514",
"gM c #e8942e",
"dq c #e9672d",
"gR c #e9ffc6",
"cw c #ea7544",
"dU c #ed4b00",
"cx c #ed7844",
"dr c #ee4e01",
"dV c #ee540a",
"g7 c #eeffd4",
"c0 c #ef6f32",
"gQ c #efffd6",
"gP c #f0fed8",
"cy c #f17b44",
"ew c #f2b257",
"cz c #f3793f",
"ds c #f45100",
"dW c #f47435",
"c1 c #f4783c",
"g6 c #f6feeb",
"c2 c #f87b3c",
"em c #fb5801",
"en c #fb5a06",
"dt c #fb6212",
"c3 c #fb7d3d",
"dX c #fc5c07",
"eo c #fc7c37",
"c4 c #fd803c",
"dY c #fe630a",
"du c #fe762c",
"ep c #fe7a25",
"f8 c #feb561",
"fo c #fedc85",
"fM c #fee891",
"eR c #ff6b13",
"dZ c #ff6f16",
"eQ c #ff7017",
"d0 c #ff7e28",
"fi c #ff8027",
"eq c #ff832a",
"eS c #ff843c",
"dv c #ff853e",
"f7 c #ff8631",
"fh c #ff8931",
"fj c #ff8a3c",
"fJ c #ff8b39",
"dw c #ff8c46",
"er c #ff8f37",
"d1 c #ff8f3f",
"dx c #ff914b",
"gr c #ff953d",
"f6 c #ff963e",
"eT c #ff9745",
"es c #ff9a42",
"fI c #ff9c45",
"d2 c #ff9c50",
"et c #ffa24a",
"eU c #ffa34b",
"d3 c #ffa55c",
"f5 c #ffa951",
"eu c #ffaa52",
"fk c #ffae5d",
"eV c #ffaf57",
"ev c #ffb05b",
"eW c #ffb961",
"fK c #ffba69",
"eX c #ffc169",
"fl c #ffc36c",
"eY c #ffc66f",
"eZ c #ffc971",
"fm c #ffcf77",
"fn c #ffd880",
"fL c #ffe38c",
"QtQtQtQtQtQtQtQtQtQtQtQtQtQtQtQtQtQtQtQtQt.#.a.bQtQtQtQtQtQtQtQt",
"QtQtQtQtQtQtQtQtQtQtQtQtQtQtQtQtQtQtQtQt.c.d.e.f.g.hQtQtQtQtQtQt",
"QtQtQtQtQtQtQtQtQtQtQtQtQtQtQtQtQtQtQt.i.j.k.l.m.n.o.pQtQtQtQtQt",
"QtQtQtQtQtQtQtQtQt.qQtQtQtQtQtQtQt.r.s.t.u.v.w.x.y.z.A.BQtQtQtQt",
"QtQtQtQtQtQtQt.C.D.E.FQtQtQtQtQt.C.G.H.I.J.K.L.M.N.O.P.Q.RQtQtQt",
"QtQtQtQtQtQt.S.T.U.V.W.X.rQtQt.Y.Z.0.1.2.3.4.5.6.7.8.9#.##QtQtQt",
"QtQtQtQtQt#a#b#c#d#e#f#g#h#i#j#k#l#m#n#o#p#q#r#s#t#u#v#w#xQtQtQt",
"QtQtQtQt#y#z#A#B#C#D#E#F#G#H#I#J#K#L#M#N#O#P#Q#R#S#T#U#V.hQtQtQt",
"QtQtQt#W#X#Y#Z#0#1#2#3#4#5#6#7#8#9a.a#aaabacadaeafagah.CQtQtQtQt",
"Qt.raiajakalamanaoapaqarasat#qauavawaxayazaAaBaCaDaE.hQtQtQtQtQt",
".CaFaGaHaIaJaKaLaMaNaOaPaQaR#PabaSaTaUaVaWaXaYaZa0a1a2QtQtQtQtQt",
"a3a4a5a6a7a8a9b.b#babbbcbdbebfbgaAbhbibjbkblbmbnbobpbqbrQtQtQtQt",
"bsbtbubvbwbxbybzbAbBbCbDbEbFbGbHbIbJbKbLbMbNbObPbQbRbSbTbU.rQtQt",
"bVbWbXbYbZb0b1b2b3b4b5b6b7b8b9c.c#cacbcccdcecfcgchcicjckclcmcnQt",
"cocpcqcrcsctcucvcwcxcyczcAcBcCcDcEcEcFcFcGcHcIcJcKcLcMcNcOcPcQcR",
"cScTcUcVcWcXcYcZc0c1c2c3c4c5c6c7c8c8c7c9d.d#dadbdcdddedfdgdhdidj",
"dkdldmdndodpdqdrdsdtdudvdwdxdydzdAdBdCdDdEdFdGdHdIdJdKdLdMdNdOdP",
"QtdQdRdSdTdUdVdWdXdYdZd0d1d2d3d4d5d6d7d8d9e.e#eaebecedeeefegehei",
"QtQt#xejekelemeneoepeqereseteuevewexeyezeAeBeCeDeEeFeGeHeIeJeKeL",
"QtQtQteMeNeOePeQeReSeTeUeVeWeXeYeZe0e1e2e3e4e5e6e7e8e9f.f#fafbfc",
"QtQtQtQtfdfefffgfhfifjfkflfmfnfofpfqfrfsftfufvfwfxfyfzfAfBfCfDfE",
"QtQtQtQtQt.hfFfGfHfIerfJfKfLfMfNfOfPfQfRfSfTfUfVfWfXfYfZf0f1##Qt",
"QtQtQtQtQtQt.rf2f3f4f5f6f7f8f9g.g#gagbgcgdgegfggghgigjgkglgmQtQt",
"QtQtQtQtQtQtQtQtgngogpgqgrgsgtgugvgwgxgygzgAgBgCgDgEgFgGgHQtQtQt",
"QtQtQtQtQtQtQtQtQtgIgJgKgLgMgNgOgPgQgRgSgTgUgVgWgXgYgZ.CQtQtQtQt",
"QtQtQtQtQtQtQtQtQtQt.Rg0g1g2g3g4g5g6g7g8g9h.h#hahbhc.hQtQtQtQtQt",
"QtQtQtQtQtQtQtQtQtQtQtgHhdhehfhghhhihjhkhlhmhnhohp.rQtQtQtQtQtQt",
"QtQtQtQtQtQtQtQtQtQtQtQt.C#VhqhrhshthuhvhwhxhyhzQtQtQtQtQtQtQtQt",
"QtQtQtQtQtQtQtQtQtQtQtQtQt.CgZhAhBhChDhEhFhGhHQtQtQtQtQtQtQtQtQt",
"QtQtQtQtQtQtQtQtQtQtQtQtQtQt.hhIhJhKhLhMhNeMQtQtQtQtQtQtQtQtQtQt",
"QtQtQtQtQtQtQtQtQtQtQtQtQtQtQt.rhOhPhQ#VfdQtQtQtQtQtQtQtQtQtQtQt",
"QtQtQtQtQtQtQtQtQtQtQtQtQtQtQtQtQthH##.hQtQtQtQtQtQtQtQtQtQtQtQt"};
