/* XPM */
static char *dummy[]={
"32 32 593 2",
"f. c #d52f82",
"e9 c #d52f83",
"fp c #d53083",
"eT c #d62e82",
"bg c #d62e83",
"aB c #d62e84",
"df c #d62f81",
".x c #d62f82",
"bJ c #d62f83",
".S c #d62f84",
"cH c #d62f85",
"a. c #d63082",
"b9 c #d63084",
"bh c #d63184",
"fs c #d63185",
"eP c #d63587",
"d1 c #d72d83",
"cZ c #d72e81",
"c8 c #d72e82",
".z c #d72e83",
"#5 c #d72e84",
"aL c #d72f82",
".y c #d72f83",
".D c #d72f84",
".C c #d73083",
"c2 c #d73084",
".f c #d73085",
".g c #d73184",
"dx c #d73185",
"dd c #d73284",
"#f c #d73285",
"e4 c #d73286",
"de c #d73384",
"#E c #d73385",
"fa c #d73386",
"hd c #d73486",
"bP c #d73586",
"ab c #d73587",
"aj c #d73687",
"eE c #d73887",
"eK c #d73987",
".E c #d82e83",
".A c #d82e84",
"#g c #d82f83",
"br c #d82f84",
"dy c #d83083",
"bO c #d83184",
"aH c #d83185",
"cS c #d83186",
"af c #d83285",
"#h c #d83486",
"bD c #d83586",
"gh c #d83686",
"eB c #d83687",
"#J c #d83787",
"b0 c #d83789",
"eg c #d83889",
"eV c #d83987",
"dW c #d83989",
"#l c #d83b89",
"cz c #d83b8a",
".e c #d83b8c",
"dR c #d83c8a",
"ak c #d83d8c",
"#X c #d8438e",
".B c #d92e83",
"f# c #d92e84",
"c3 c #d93185",
".R c #d93486",
"g4 c #d93789",
"at c #d93887",
".F c #d93888",
"cn c #d93889",
"hh c #d93988",
"gZ c #d93989",
"bC c #d93a87",
"cJ c #d93a8a",
".V c #d93a8b",
"au c #d93b89",
".Y c #d93b8a",
"d. c #d93b8b",
".h c #d93c8b",
"#8 c #d93c8c",
"aa c #d93e8b",
"g2 c #d93e8c",
"gY c #d93f8c",
"gg c #d9408c",
"a# c #d9408d",
"cM c #d9438e",
"#H c #d94390",
"aG c #d94a93",
".w c #da3789",
"hm c #da3a8b",
"cY c #da3b8a",
"d4 c #da3b8b",
"ah c #da3d8b",
"eC c #da3e8c",
"fg c #da3f8c",
"aQ c #da3f8d",
"al c #da408c",
"ac c #da408e",
"#M c #da408f",
"cB c #da428e",
"aw c #da4490",
"ca c #da4690",
"#w c #db3a8a",
"aA c #db408d",
".2 c #db4290",
"e0 c #db458f",
"dX c #db4590",
"ck c #db4891",
"#s c #db4f95",
"gi c #db5096",
"g5 c #db5196",
"ez c #dc438f",
"eR c #dc4390",
"c7 c #dc4490",
"fo c #dc4491",
"eh c #dc4591",
"cG c #dc4992",
".T c #dc4995",
"fl c #dc4c94",
"g1 c #dc4d95",
"cD c #dc4e93",
".Z c #dc4e95",
"aC c #dc4f96",
"d# c #dc5197",
"#6 c #dc5198",
"gn c #dc5296",
"eu c #dc5298",
"aV c #dc5498",
"dE c #dc579b",
"dn c #dd4994",
"dO c #dd4d95",
"g6 c #dd4f97",
"g3 c #dd5197",
"a2 c #dd5297",
"aN c #dd5298",
"aK c #dd5397",
"dF c #dd5398",
"eY c #dd5399",
"#G c #de5197",
"fZ c #de5299",
"#K c #de529a",
"b6 c #de5399",
"cq c #de5598",
".3 c #de5599",
"eo c #de569a",
"ep c #de579a",
"bV c #de579b",
"ae c #de589a",
"fj c #de589b",
"#P c #de5a9d",
"gP c #de5f9f",
"d5 c #df559a",
".d c #df569a",
"eO c #df589b",
"dN c #df599b",
"cA c #df5b9d",
"cI c #df5c9e",
"cm c #df5d9d",
"gL c #df5da0",
"bG c #df5fa0",
"fG c #df6ba5",
"c9 c #e0569a",
".i c #e0569b",
"#o c #e0579c",
"ad c #e0589c",
"bX c #e05d9e",
"gp c #e05d9f",
"cT c #e05e9e",
"dz c #e05e9f",
"ai c #e05ea1",
"c. c #e060a0",
"#F c #e060a1",
"cy c #e061a0",
"ft c #e061a2",
"#9 c #e065a2",
"#T c #e066a3",
"#U c #e067a2",
"cC c #e067a4",
"g0 c #e067a5",
"g8 c #e06ea7",
".X c #e070a8",
"ag c #e15a9e",
"bK c #e15fa1",
"aF c #e160a0",
"ej c #e162a1",
"ay c #e164a2",
"gN c #e164a3",
"gr c #e165a3",
"ea c #e165a4",
"ax c #e166a4",
"aE c #e167a3",
"bk c #e167a4",
"g7 c #e167a5",
"f6 c #e168a6",
"aI c #e169a5",
"fT c #e16ba6",
"fv c #e16ba7",
"bm c #e16da7",
"c1 c #e16da9",
"bz c #e16fa7",
"#L c #e16fa9",
"ev c #e172ab",
"d6 c #e268a5",
"#t c #e268a6",
"bo c #e269a5",
"aX c #e26ba7",
"b7 c #e26ca7",
"bH c #e26da7",
"dL c #e26fa7",
"cE c #e26faa",
"c4 c #e272ab",
"gS c #e274ac",
"eb c #e277ae",
"dI c #e36ba7",
"gu c #e36ca6",
".Q c #e36ca7",
"fb c #e36ea8",
"aM c #e36eaa",
"h# c #e36fa8",
"av c #e371a9",
"e6 c #e371aa",
"ec c #e372aa",
"dJ c #e372ab",
"fm c #e373ac",
"bd c #e374ab",
"cF c #e374ae",
"fr c #e375ae",
"#4 c #e376ad",
"fy c #e377ad",
"#D c #e377ae",
"gW c #e378ac",
".W c #e378ad",
"dg c #e378ae",
"fC c #e37aaf",
"a7 c #e37db1",
"bU c #e380b3",
"h. c #e470aa",
".0 c #e475ad",
"fN c #e476ac",
".1 c #e476ad",
"#j c #e477ac",
"ao c #e477ad",
"em c #e478ad",
"gv c #e479af",
".N c #e47aae",
"ey c #e47bb0",
"bY c #e47cb0",
"dc c #e47db1",
"fP c #e47eb1",
"gX c #e47fb1",
"aP c #e484b5",
"bT c #e577ae",
".5 c #e57aaf",
"#0 c #e57ab0",
".G c #e57bb0",
"bB c #e57cb0",
".v c #e57cb1",
"hn c #e57db1",
".c c #e57eb1",
"cf c #e57eb2",
"hl c #e57eb3",
"fh c #e582b5",
"az c #e584b5",
".4 c #e587b6",
"gF c #e591bc",
"eJ c #e67db1",
"cL c #e67eb1",
"c0 c #e67eb2",
".P c #e67fb3",
"ee c #e682b5",
"ct c #e683b5",
"#B c #e684b4",
"eX c #e685b5",
"el c #e686b5",
"cs c #e686b6",
"fu c #e686b7",
"b1 c #e687b7",
"cP c #e689b7",
"eZ c #e68ab8",
"c6 c #e68ab9",
"gA c #e68bb7",
"#v c #e782b3",
"#z c #e783b4",
"cr c #e784b6",
"#k c #e785b6",
"aD c #e786b7",
"dC c #e787b6",
"eQ c #e787b7",
"aJ c #e788b7",
"he c #e788b8",
"fc c #e789b8",
"as c #e78ab9",
"gm c #e78aba",
"bt c #e78cb9",
"aO c #e78db9",
"#p c #e78dba",
"aR c #e78ebb",
"dH c #e78ebd",
"dj c #e791bc",
"dZ c #e792bc",
"d9 c #e792bd",
"ff c #e793be",
"fD c #e794bf",
"eq c #e795be",
"#I c #e798c0",
"f3 c #e883b5",
"go c #e884b5",
"## c #e888b7",
"fE c #e889b8",
"dw c #e88aba",
"#W c #e88bb8",
"#Q c #e88bb9",
"bS c #e88bba",
"#x c #e88cba",
"b5 c #e890bc",
"fn c #e890bd",
"#Z c #e891bd",
"fk c #e892be",
"fq c #e893bf",
"bM c #e896bf",
".M c #e896c0",
"cg c #e897be",
".U c #e89ac2",
".O c #e989b7",
"b. c #e98ebb",
"fi c #e992be",
"by c #e996c0",
"bw c #e997c0",
"dm c #e998c0",
".6 c #e99ac3",
"g9 c #e99bc3",
"dr c #e99dc4",
"#i c #ea8fba",
"eI c #ea96c0",
"dQ c #ea99c1",
"en c #ea99c2",
"d3 c #ea9ac1",
"e3 c #eaa3c6",
"c5 c #eb98c2",
"gT c #eb99c1",
"#y c #eb9ac2",
"ds c #eb9cc4",
"f0 c #eba0c5",
"bv c #eba3c9",
"cV c #ec9ec3",
"g. c #eca1c6",
"d8 c #eca7ca",
"e8 c #eca9cb",
"gB c #ecadcc",
"#n c #ecadcd",
"d2 c #ecaecc",
"gd c #ecafcf",
"cQ c #ecb0cf",
"cR c #ecb4d0",
"a8 c #eda5c9",
"gc c #eda6c9",
"#O c #eda9cc",
"ci c #edabcc",
"am c #edaccd",
"cx c #edaecd",
"fR c #edafce",
"#N c #edafcf",
"bc c #edb3d2",
"f1 c #edb5d1",
"fK c #edb5d3",
"fH c #edb7d4",
"fz c #eeaacb",
".8 c #eeaccd",
"bi c #eeadce",
"fS c #eeaecd",
"#Y c #eeb0d0",
"cp c #eeb3cf",
"dV c #eeb3d0",
"gR c #eeb4d2",
"eG c #eeb5d2",
".7 c #eeb7d3",
"dv c #eebad4",
"bE c #eebad5",
"a5 c #eec1d9",
"gH c #eec3da",
"gt c #efafcd",
"gb c #efafce",
"gw c #efb0cf",
".b c #efb3cf",
".j c #efb3d1",
"cK c #efb4d0",
"fY c #efb4d1",
"gI c #efb4d3",
"fB c #efb5d2",
"cW c #efb8d2",
"#r c #efb9d4",
"a4 c #efbbd5",
"bq c #efbcd6",
"a9 c #efbdd7",
"aU c #efc7dd",
"e1 c #efc8dc",
"ho c #f0b3d2",
"hk c #f0b4d1",
"dU c #f0b7d2",
"#m c #f0b8d4",
"aZ c #f0bcd9",
"eD c #f0bdd7",
"dp c #f0c0d8",
"et c #f0c0d9",
"a1 c #f0c3db",
"dT c #f0c4d8",
"cu c #f0c6db",
"#q c #f0c6dd",
"fI c #f0c8dc",
"bN c #f0c8dd",
"gk c #f1b7d3",
"dS c #f1b9d6",
"eA c #f1bcd6",
"g# c #f1bfd8",
"gs c #f1c0d9",
"fM c #f1c1d9",
"#7 c #f1c2da",
"eF c #f1c5da",
"f8 c #f1cbdd",
"fQ c #f1cde1",
"fL c #f1cee0",
"#a c #f2c7dc",
"#u c #f2c9de",
"eH c #f2cadd",
"fd c #f2cade",
"d0 c #f2ccde",
"ex c #f2cee0",
"#e c #f2cfe1",
"fO c #f2d2e4",
"a0 c #f2d6e5",
"f9 c #f3c6dc",
"fe c #f3cadf",
"ew c #f3ccdf",
"dA c #f3d1e1",
"bs c #f3d3e3",
"ga c #f3d4e3",
"cO c #f3d5e4",
"du c #f3dbe9",
".H c #f4c9de",
"#V c #f4d1e2",
"ar c #f4d4e4",
"ch c #f4d5e5",
"bx c #f4d7e6",
"#R c #f4d8e7",
"cd c #f4d9e7",
"hi c #f4dbe9",
"db c #f4dce9",
"#S c #f4deeb",
"gl c #f4e6ef",
"aS c #f5d3e4",
"gG c #f5d4e4",
"ge c #f5d5e4",
"do c #f5d6e6",
"cc c #f5d9e7",
"bf c #f5dce9",
"bb c #f5ddea",
"dP c #f5ddeb",
"gU c #f5e0eb",
"dh c #f5e1ec",
"cX c #f5e3ed",
"gO c #f5e4ef",
"hg c #f6daea",
".u c #f6dbe9",
"bQ c #f6dce9",
"fX c #f6deea",
"cU c #f6dfea",
"gx c #f6dfeb",
"gQ c #f6e0eb",
"b8 c #f6e1ed",
"eS c #f6e2ed",
"e. c #f6e3ec",
"dG c #f6e5ee",
"ap c #f6e6ee",
"bA c #f7daea",
"cj c #f7e1ed",
"cb c #f7e4ec",
"b# c #f7e6ef",
"gM c #f7e9f1",
"cv c #f7ebf2",
"hc c #f7ecf4",
"dM c #f7edf3",
"fJ c #f7edf4",
"gJ c #f7f0f4",
"f2 c #f7f1f4",
".I c #f8ddea",
"bI c #f8e2ee",
"f7 c #f8e5ee",
"e# c #f8e5f0",
"dk c #f8e6f0",
"bp c #f8e7ef",
"gj c #f8e8f1",
"dl c #f8e9ef",
"bn c #f8e9f1",
"gq c #f8eaf1",
"fF c #f8eaf3",
".k c #f8ebf3",
".a c #f8ecf3",
"dt c #f8edf3",
"bZ c #f8edf4",
"ed c #f8eef3",
"a3 c #f8eff4",
"cN c #f8f0f5",
"bR c #f8f1f6",
"ek c #f8f2f7",
"bu c #f8f3f7",
"c# c #f9e8f1",
"cl c #f9e8f2",
"ba c #f9eaf2",
"eU c #f9ebf3",
"dD c #f9edf4",
"dq c #f9eef4",
"e2 c #f9eef5",
"eM c #f9eff4",
"d7 c #f9f0f5",
"ce c #f9f0f6",
"b3 c #f9f1f5",
"a6 c #f9f2f5",
"dK c #f9f2f6",
"di c #f9f3f5",
"aY c #f9f3f7",
"aW c #f9f3f9",
"er c #f9f6f8",
"gC c #f9f8fa",
"#C c #f9fcfc",
"bL c #fae8f1",
"bW c #faeaf2",
"#2 c #faedf4",
"co c #faedf5",
"f5 c #faeff4",
"gK c #faeff5",
"#c c #faf0f6",
".r c #faf1f6",
"bF c #faf3f6",
".9 c #faf3f7",
"b2 c #faf4f7",
"gE c #faf5f8",
"e7 c #faf5fa",
"fW c #faf6fa",
"ei c #faf7f9",
"eW c #faf8f9",
"b4 c #faf9f9",
"#d c #faf9fa",
"aq c #fafafb",
"eN c #fafafc",
"#b c #fafbfb",
"aT c #fafbfc",
"e5 c #fafcfa",
"#1 c #fafcfc",
"fV c #fafdfc",
"fA c #fbf0f6",
"f4 c #fbf2f6",
"bl c #fbf3f9",
"ef c #fbf5f8",
"gD c #fbf6f8",
"hb c #fbf6fa",
".L c #fbf7f9",
"da c #fbf8fa",
"dB c #fbf9fa",
"fw c #fbf9fb",
"cw c #fbfafb",
"an c #fbfafc",
"eL c #fbfbfa",
"#3 c #fbfcfc",
".# c #fbfcfd",
"fx c #fbfdfc",
"#. c #fbfdfd",
".K c #fbfdfe",
"#A c #fcf1f7",
"es c #fcf2f8",
"dY c #fcf5f8",
"bj c #fcf9fa",
"fU c #fcf9fb",
".q c #fcfafb",
"gz c #fcfbfb",
"gV c #fcfbfc",
".l c #fcfcfc",
"hf c #fcfdfc",
".J c #fcfdfd",
".t c #fcfdfe",
".s c #fdf7fa",
"gf c #fdfcfb",
".m c #fdfdfd",
".p c #fdfdfe",
"be c #fdfefd",
".o c #fdfefe",
".n c #fefefe",
"hj c #fefffe",
"ha c #fffefe",
"gy c #fffeff",
"Qt c #ffffff",
"QtQtQtQtQtQtQtQtQt.#.a.b.c.d.e.f.g.h.i.c.j.k.l.m.nQtQtQtQtQtQtQt",
"Qt.n.o.p.q.r.s.t.u.v.w.x.y.x.z.A.B.C.D.D.E.F.G.H.I.m.J.K.oQtQtQt",
"Qt.o.L.M.N.O.P.Q.R.S.D.T.U.V.D.W.X.Y.Z.0.1.2.3.4.5.6.7.8.9QtQtQt",
"Qt#.###a#b#c#d#e#f#g#h#i#j#k#l#m#n#o#p#q#r#s#t#u#v#w#x#y#z.#.nQt",
"Qt#A#B#C#D#E#F#G#H#I#J#K.6#L#M#N#O#P#Q#R#S#T#U#V#W#X#Y#Z#0#1.nQt",
"Qt#2#W#3#4.y.D#5#6#7#8.D#9a.a#aa.3abacadaeafagahaiajakalaman.nQt",
"Qt.laoapaqarasatauavawaxayazaAaBaCaDaEaFaGaHaIaJaKaLaMaNazaO.oQt",
"Qt.paPaQaRaSaTaUaVaWaXaYaZa0a1a2a3a4a5a6a7a8a9b.b#.3babbbcbdbe.n",
"Qtbf#hbg#5bhbibjbkblbmbn#Ebobp.Ubq.Ebrbsbtbubvbwbxbybabz.y#hbA.p",
".#bBacbwbCbDbEbFbGblbHbIbJbKbLbMbNbObPbQasbRbSbTbUbVbWbX.x.ybY.t",
"bZb0b1#db2b3b4b5b6aWb7b8b9c.c#cacbcccdcecfcgchcicjckclcm.y.Dcnco",
"cp.E.zcqcrcsctcucvcwcxcy.SczcAbJcBcCcDbfcE.yaecFcGcHcIcJbg.D.zcK",
"cL.z.y.DaBcMcNcOcPcQcRcS.z.y.ycTcUcVcWcXcYbJbg.z.z.SaB.z.S.DcZc0",
".d.x.D.D.yc1.laX.Dc2c3aB.D.S.zafc4c5c6c7.y.z.yc8.z.S.D.D.D.DbJc9",
"d.bJ.D.Dc8d#dadbdca#aB.DbgdddebJbgbgdf.RbJ.SbJ#Ec2.D.D.D.D.D.D.h",
"aH#5.D.D.zbJdgdh#3di#pcHdjdkdldmdndodpdqdr.Cdsdtdudvdw#5.D.D.D.g",
"dxc8.D.D.D.DbJdydzdAdBdCdDdEdFdGdH#bdIdJdKdLdMdNdOdPdQ#5.D.D.Dbh",
"dR.D.D.D.D.Daw.z.D.5.ldSdT.A.DdUdVb2dWdXdYdZd0d1brd2d3#5.D.D.Dd4",
"d5.D.D.D.Sd6d7d8d9e.e#eacNebecedeeefegeheiejekelem.aen#5.D.Dbgeo",
"cL.D.z.Depeqer.leseteu.DevewexeyezeAeBeCeDeEeceFeGeHeI#5.D.D.yeJ",
".jc8eK#reLeMbneNd7eO.S.D.zaB#5bg.SaBbJ.S#5ePeQeR.ZeScEbJ.D.DeT.j",
"eUeV#NeWeXatafeYeZaHbg.Dbg.S#5.D#5.z.zbg.ze0e1e2eUe3e4.z.D.Dcn#2",
"e5e6e7e8.D.S#5.ybJ.y.y.y.ybJ.Se9.y.zf.bJbg.yf#fae4.yaL.D.ybJ.W.J",
".qc0.Jfb.y.DfcfdfefffgfhfifjaQ.0aIfkflfmfnfofpcTfqfrfsftc.fufv.q",
"fwcffxdJ.z.DfyfzfAfBfCfDfEfFfGeifHfIfJfKfLfMfNfOfPfQaRfRdDfSfTfU",
"fV.vfWeGbJc8bg.ffXfYfZf0f1f2f3f4ddbGf5dxf6f7f8f9g.g#gagbgcgdge.m",
"gfdSe8cw.Mggghgigjgkglgmgna3gof5.xgpgqbggrf7gsgtgugvgrgwdQgxgyQt",
".ngzgAgBgCgD.r#bgEgFgGgHgIgJcrgKbJgLgMdfgNgOgPgQgRgQgS#NgTgU.nQt",
"Qt.pgV.jgWgX#vaIgY.ygZg0cGg1g2g3.zg4g5.zcng6e9fgg7g8g9h.h#dDhaQt",
"QtQtQt.t#3hbhceQhd.S.D.D.D.D.D.D.D.D.D.D.D.Dbghdheb3.Jhffx.J.nQt",
"QtQtQt.n.n.n.n.mhgbYcn.z.A.S.D.D.D.DbgbgeThh.Ghi.n.nhj.n.n.ngyQt",
"QtQtQtQtQtQtQt.n.p.tcohkhl.i.h.gdxhm.dhnhoco.J.n.nQtQtQtQtQtQtQt"};
