/* XPM */
static char *dummy[]={
"32 32 435 2",
"eV c #0b1010",
"eU c #0d1214",
"eT c #0d1215",
"eG c #0e1316",
"eH c #0f1415",
"eF c #101518",
"eE c #111619",
"eS c #111719",
"el c #11171a",
"ek c #11191b",
"d7 c #121a1c",
"eR c #13191c",
"d6 c #141c1e",
"eQ c #151c1e",
"dT c #161e1f",
"eA c #161e21",
"ez c #161f21",
"dF c #162022",
"dU c #171e20",
"dS c #171f25",
"eP c #172022",
"ey c #172225",
"eO c #182123",
"dE c #182224",
"eD c #191e21",
"dj c #192021",
"d5 c #192123",
"ex c #192224",
"dD c #192227",
"do c #192426",
"eN c #1a2326",
"dn c #1a2426",
"eM c #1b2428",
"c8 c #1b2628",
"c2 c #1b2629",
"eL c #1c2527",
"dm c #1c2628",
"c7 c #1d2729",
"cQ c #1d2b2c",
"cR c #1e292b",
"df c #1e2b2d",
"es c #1f2b2f",
"er c #202c2f",
"dG c #212628",
"cy c #212b2f",
"ea c #223033",
"cx c #232d31",
"cw c #232f33",
"cj c #233032",
"ci c #233134",
"di c #24282b",
"e# c #243034",
"ch c #243333",
"d0 c #253235",
"b6 c #253436",
"eb c #263033",
"b5 c #263437",
"dK c #28373a",
"em c #292f31",
"b4 c #293638",
"bO c #29363b",
"dR c #2a3433",
"b3 c #2a363c",
"cZ c #2a373c",
"bN c #2a393a",
"bu c #2a3a3c",
"bM c #2a3a40",
"dZ c #2c373a",
"dt c #2c3a3e",
"bL c #2d3b40",
"bs c #2d3c41",
"bt c #2d3c42",
"d8 c #2e3536",
"bI c #2e4044",
"dg c #2f393b",
"br c #2f3f43",
"bq c #2f4245",
"b. c #304044",
"cg c #313b41",
"a8 c #314045",
"a9 c #314145",
"c6 c #323836",
"aQ c #32464b",
"dx c #33393a",
"a7 c #334349",
"bo c #334447",
"b0 c #344549",
"bn c #34464b",
"aP c #34474a",
"a4 c #35484e",
"aO c #35494f",
"a3 c #354b50",
"eB c #363d3e",
"aN c #364a4f",
"dc c #37444a",
"bj c #374d53",
"eq c #384144",
"c3 c #394245",
"dw c #3a4142",
"a5 c #3b4c51",
"bE c #3b4c52",
"a6 c #3d4d50",
"a2 c #3d5357",
"cM c #3f494c",
"aM c #3f5056",
"cP c #404342",
"d4 c #43494b",
"cL c #454e51",
"bi c #4a5b5d",
"ew c #4c5355",
"dL c #505353",
"c4 c #505958",
"bm c #506064",
"a0 c #506066",
"dJ c #536062",
"dp c #555b5d",
"c0 c #556063",
"eC c #565b5d",
"b2 c #566264",
"aL c #58676e",
"bP c #5c6969",
"et c #5f696b",
"aR c #647175",
"bH c #647375",
"de c #696e72",
"ec c #6c7174",
"eK c #707879",
"b# c #748081",
"ck c #757c7f",
"aK c #778386",
"e. c #798183",
"cY c #7c7a78",
"eu c #7d8383",
"bJ c #7d868a",
"ev c #7f8587",
"bZ c #7f888a",
"d1 c #838a8c",
"cW c #848585",
"bD c #849294",
"c9 c #858b8c",
"cN c #86736d",
"bX c #889295",
"ds c #8c9596",
"bK c #8e9899",
"bp c #8f9b9d",
"eW c #949396",
"bk c #949c9f",
"a1 c #96a2a7",
"eg c #979b9c",
"## c #97a3a4",
"cd c #989d9f",
"aJ c #99a3a7",
"cD c #9a9fa3",
"b7 c #9ca2a3",
"cn c #9da5a6",
"dC c #a09790",
"aZ c #a0a8ab",
"eh c #a1a4a4",
"dV c #a1a5a7",
"cv c #a29793",
"dk c #a3a2a3",
"cS c #a9acad",
"dq c #a9adae",
"af c #acb2b5",
"bW c #acb4b5",
"#S c #acb5b4",
"b9 c #b1bab9",
"cl c #b2b6b6",
"#3 c #b4bbbc",
"#M c #b4bcbf",
"ce c #b5b8bb",
"ap c #b5babb",
"#z c #b5bebf",
"cb c #b7bec0",
"du c #b88477",
"#q c #b8c2c1",
"ej c #b9bcbd",
"dv c #bbb6b4",
"cT c #bbbfbf",
"bQ c #bbc4c5",
"d9 c #bdc1c1",
".0 c #bfc4c6",
"dY c #bfc5c5",
".N c #bfc7c9",
"cI c #c0c6c6",
"bv c #c0c6c7",
"#2 c #c1cacc",
"#8 c #c2c7c8",
".w c #c2c9cc",
"aS c #c3c7c7",
"az c #c3c7c9",
"a. c #c3c9ca",
"#t c #c5c9ca",
".i c #c5cbcd",
"#U c #c5cccf",
"ef c #c6c9ca",
"ay c #c6cacb",
"bz c #c7cdcb",
".n c #c7cdcd",
"bh c #c8cbcb",
".h c #c8ccce",
"db c #c9cbcd",
"b8 c #c9d1d1",
"au c #cacbac",
"aD c #cacecf",
"#f c #cad0d0",
"#Y c #cad0d2",
"#m c #cbccce",
"cz c #cbcdcf",
"#G c #cbcfd0",
"aT c #cbcfd1",
"aG c #cccf8b",
"#Z c #ccd2d4",
".C c #cdd0d0",
"ct c #cdd1d0",
"dH c #cdd1d2",
"ag c #cdd2c8",
".s c #cdd2d2",
".d c #cdd4d7",
"ah c #cecdb1",
"aH c #ceceb6",
".X c #ced0cf",
"cE c #ced0d0",
"#X c #ced2d5",
"#L c #ced7d9",
".7 c #cfcfcf",
".Z c #cfcfd0",
".v c #cfd0cf",
".K c #cfd0d0",
"aX c #cfd1d2",
".M c #cfd1d3",
"bR c #cfd2d5",
".B c #d0cecf",
".L c #d0cfcf",
"ai c #d0cfd2",
"av c #d0d0cd",
"aw c #d0d0d0",
"aj c #d0d0d1",
"d# c #d0d3d3",
"d. c #d0d3d4",
"#0 c #d0d6d8",
".Y c #d1cfd0",
"#D c #d1d1d1",
"dW c #d1d2d1",
".p c #d1d3d3",
"a# c #d2cecf",
"ak c #d2d2d3",
"aY c #d3d3d3",
".u c #d3d3d4",
".8 c #d3d4d4",
"aI c #d3d7d4",
"aa c #d4d4d4",
"#1 c #d4dadc",
"#E c #d5d5d5",
"ax c #d5d7d9",
"#7 c #d5d8d8",
".H c #d5d9da",
".3 c #d5d9db",
".q c #d5dadb",
"aA c #d6d7d8",
"#F c #d6d9da",
"#H c #d6dcdd",
".1 c #d6ddde",
"#W c #d7d9d8",
"bl c #d7dbdb",
"bf c #d7dcd9",
"eo c #d8d9d9",
".T c #d8dbdc",
"#g c #d8dddc",
".9 c #d9dad8",
"cU c #d9dcdc",
"cJ c #d9dddc",
".D c #d9ddde",
"dl c #daa89a",
"ei c #dadbdb",
".o c #dadbdd",
"da c #dbd9d9",
".6 c #dbdbdb",
"#V c #dbdbdc",
".y c #dbdddf",
"cf c #dbdfdf",
".c c #dbe2e3",
"at c #dcdea6",
"cF c #dcdedc",
"dr c #dddbdc",
".W c #dddcdd",
"ab c #dddddd",
"dA c #ddddde",
"#. c #deddde",
"aC c #dedfde",
".J c #dfdedf",
"#j c #dfdfdf",
"#r c #dfe3e4",
"#k c #e0e0e0",
".z c #e0e2e4",
"#I c #e0e5e7",
"al c #e1e1e2",
"c1 c #e1e3e5",
"cm c #e1e5e5",
"ed c #e2e1e2",
"cV c #e2e2e0",
"#C c #e2e2e2",
"d3 c #e2e3e3",
"co c #e2e3e4",
"#4 c #e2e5e6",
"dI c #e3e1e3",
"dz c #e3e4e5",
".U c #e3e6e5",
"ae c #e3e6e6",
"#l c #e4e4e4",
".t c #e4e4e5",
"c. c #e4e4e7",
"bA c #e4e5e4",
".I c #e4e5e5",
"#N c #e4e5e6",
"#h c #e4e6e4",
"ao c #e4e6e5",
"#A c #e4e6e6",
"dQ c #e5e3e4",
".A c #e5e4e5",
"bS c #e5e4e6",
"am c #e5e5e3",
"#P c #e5e5e4",
"#i c #e5e5e5",
"#6 c #e5e5e6",
"#O c #e5e6e4",
"#5 c #e5e6e5",
"an c #e5e6e6",
"ac c #e5e6e7",
"aW c #e5e7ce",
"bF c #e5e8ea",
"ad c #e6e4e5",
"#R c #e6e5e5",
"#B c #e6e5e6",
"bT c #e6e6e3",
".5 c #e6e6e4",
"aB c #e6e6e5",
".V c #e6e6e6",
"#s c #e6e6e7",
"bU c #e6e7e6",
"#n c #e6ebeb",
"#Q c #e7e5e7",
".4 c #e7e6e6",
"bg c #e7e7e7",
"cC c #e7ebeb",
"eI c #e8e8e9",
"dB c #e9e6e9",
"bB c #e9e9e9",
"c# c #e9eaea",
"#J c #e9eced",
"#9 c #eaedea",
".g c #eaedee",
"dy c #edefef",
"dM c #eeded8",
"bG c #eeeff0",
"b1 c #eef0f1",
"#p c #eef1f3",
"dh c #eff0f0",
".G c #f0f3f4",
"c5 c #f19e8b",
"dd c #f2a48c",
"bC c #f2f2f4",
".S c #f2f3f4",
"aq c #f2f4f5",
"cc c #f4f5f5",
"cs c #f4f6f6",
"cK c #f4f6f7",
"bV c #f5f5f6",
"aV c #f6f8e8",
".m c #f6f8f9",
"#K c #f7f8f9",
"cO c #f8baab",
"cp c #f8f8f7",
".j c #f8f9f9",
"bY c #f8fafa",
"dO c #f9f9f9",
"#a c #f9fbfb",
"ep c #f9fcfc",
"dN c #faf8f8",
"#T c #fafafc",
"dX c #fafbfb",
"#e c #fafbfc",
"cu c #fbece8",
"aF c #fbf9f5",
"by c #fbfbfa",
"cA c #fbfbfb",
"ee c #fbfbfd",
"cr c #fbfcfc",
".x c #fbfdfc",
"cq c #fbfdfd",
".r c #fbfefe",
"cX c #fcd1c6",
"cH c #fcfafa",
"en c #fcfcfc",
"d2 c #fcfcfd",
"ca c #fcfcfe",
"as c #fcfdfa",
".2 c #fcfdfd",
"#u c #fcfdfe",
"ba c #fcfdff",
".F c #fcfefd",
".O c #fcfefe",
"cG c #fdf8f7",
"cB c #fdfcfc",
"#x c #fdfcfd",
"be c #fdfcfe",
"bx c #fdfdfa",
"#b c #fdfdfb",
"#d c #fdfdfc",
".# c #fdfdfd",
".k c #fdfdfe",
"#o c #fdfdff",
"aE c #fdfefb",
"bd c #fdfefc",
".l c #fdfefd",
".f c #fdfefe",
"#y c #fdfeff",
".P c #fdfffe",
"bw c #fefcfd",
"#c c #fefdfc",
".Q c #fefdfd",
".b c #fefdfe",
"aU c #fefdff",
"#w c #fefefc",
".e c #fefefd",
".a c #fefefe",
"dP c #fefeff",
"ar c #fefffe",
".R c #feffff",
"bb c #fffdfe",
"bc c #fffefc",
"eJ c #fffefd",
".E c #fffefe",
"#v c #fffeff",
"Qt c #ffffff",
"QtQtQtQtQtQtQtQtQtQtQtQtQtQtQtQt.#.a.#.b.c.d.e.fQtQtQtQtQtQtQtQt",
"QtQtQtQtQtQtQtQtQtQtQtQtQtQtQtQt.e.b.a.g.h.i.j.kQtQtQtQtQtQtQtQt",
"QtQtQtQtQtQtQtQtQtQtQtQtQtQtQtQt.e.l.m.n.o.p.q.fQtQtQtQtQtQtQtQt",
"QtQtQtQtQtQtQtQtQtQtQtQtQtQtQtQt.#.r.s.t.u.v.w.xQtQtQtQtQtQtQtQt",
"QtQtQtQtQtQtQtQtQtQtQtQt.a.a.#.a.f.y.z.A.B.v.C.D.a.E.F.bQtQtQtQt",
"QtQtQtQtQtQtQtQtQtQtQtQt.a.#.a.#.G.H.I.J.K.L.M.N.O.a.P.QQtQtQtQt",
"QtQtQtQtQtQtQtQtQtQtQtQt.#.#.R.S.T.U.V.W.X.Y.Z.0.1.k.e.aQtQtQtQt",
"QtQtQtQtQtQtQtQtQtQtQtQt.a.2.z.3.t.4.5.6.7.8.9#.###a#b.PQtQtQtQt",
".e.e.e#cQtQtQtQt.k.f.a#d#e#f#g#h#i#i.V#j#k#i.V#l#m#n.b.bQtQtQtQt",
"#o.a.f.fQtQtQtQt.2#d.2#p#q#r#s.4.V.V#i.V#i.V#i.6.K#t#u.#QtQtQtQt",
"#v.##w#wQtQtQtQt#x#y.c#z#A#B.4.U#i.V#i.V.V#i#C#D#E#F#G#yQtQtQtQt",
"#H#I#J#K.a.aQtQt#d#L#M#N.V#O#P#Q.V.V#i.V#i.V.6#j#R#N#S#TQtQtQtQt",
"#U#V#W#X#Y#Z#0#1#2#3#4#5.V.V.V.V.V.V.V.V.V.V#i#O#6.V#7#8.b.a.aQt",
"#9a.a#.Xaaab#l.Vacac#Rad.V.V.V.V.V.V.V.V.V.V#i#R#R#iaeaf.#.aQt.a",
"#bagahaiaj.Zakalam#Oanan.V.V.V.V.V.V.V.V.V#i.Van#s#iaoapaq.a.aar",
"asatauav.7aw.7#k.V#i#i#5.V.V.V.V.V.V.V.V#i.IaxayazaAaBaCaD.f.e.e",
"aEaFaGaHaw.v.6#i.V.V.V.Van#i#i#sanaIaJaKaLaMaNaOaPaQaRaSaT#v.F.a",
"aUaVaWaX.7aY#i.V.V.V.V.V#i#i.I#AaZa0a1a2a3a4a5a6a7a8a9b.b#babb.2",
"bcbdbebf#Dab.V.I.V.V.V.V#ibganbhbibjbkblbmbnbobpbqbrbsbtbubvbw.l",
"bx.f#cbybzbA#i#i.V.V.V.V.V#ibB.#bCbDbEbFbGbHbIbJbKbLbMbNbObP.f.Q",
"QtQtQtQtbQbRbSbT#6#6bU#i#i#BbV.f.2.kbWbX.abYbZb0b1b2b3b4b5b6b7.f",
"QtQtQtQtbeb8b9c.#B.V#l.V#sc#.f.b.#.fcacbcc.b.2cdcecfcgchcicjckcl",
"QtQtQtQt.f.kcmcnco#l#R#Nancp.e.#.a.Fbwcqcr.e.#csctcucvcwcxcyczcA",
"QtQtQtQt.a.QcBcCcDcE#C#CcFcGcHcIcJ.b.f.a#d#bcKcLcMcNcOcPcQcRcS#d",
"QtQtQtQtQtQtQt.acTcUcV.JcWcXcYcZc0c1#d.2.a.##Gc2c3c4c5c6c7c8c9.e",
"QtQtQtQtQtQtQtQtd.d#dadbdcdddedfdgcT.#.a.f.adhdidjdkdldmdndodp.2",
"QtQtQtQtQtQtQtQt.Odqdrdsdtdudvdwdxdy.a.a.f.#.adzdAdBdCdDdEdFdG.j",
"QtQtQtQtQtQtQtQt.adHdIdJdKdLdMdNdO.#.b.a.a.a.a.edPdQdRdSdTdUdVdW",
"QtQtQtQtQtQtQtQt.adXdYdZb5d0d1d2.f.#.a.e.a.a.a.Qd3d4d5d6d7d8.f.#",
"QtQtQtQtQtQtQtQt.a.fd9e.e#eaebeced.beeefegeheicpejcdd6ekelem.k.a",
"QtQtQtQtQtQtQtQt.aeneoepeqereseteuevewexeyezeAeBeCeDeEeFeGeHeI.#",
"QtQtQtQtQtQtQtQt.b.#.aeJeKcRdmeLeMeNeOePdTeQeReReSeFeGeTeUeVeWdP"};
