/* XPM */
static char *dummy[]={
"32 32 1010 2",
"jS c #3b2d26",
"he c #3c2c27",
"gK c #3e2f2a",
"gL c #3e302d",
"ge c #40312e",
"gf c #413430",
"fU c #42251b",
"nK c #423231",
"m6 c #423333",
"ny c #453837",
"nJ c #473636",
"gd c #473938",
"nM c #473a38",
"gJ c #483837",
"m5 c #4a3f3f",
"#A c #4a491a",
"nD c #4b3a3a",
"fq c #4c2d20",
"fM c #4d3b34",
"m4 c #4e4244",
"nz c #4e4543",
"ni c #4f4444",
"nC c #504244",
"gc c #504745",
"fL c #504747",
"nL c #514645",
".6 c #515516",
"gn c #522d20",
"nh c #524646",
"hJ c #53403e",
"mA c #534745",
"ng c #534848",
"fK c #534a48",
".A c #545917",
"l7 c #554142",
"nI c #564446",
"mK c #574747",
"mf c #583f43",
"mz c #584348",
"hd c #584946",
"hm c #593528",
"nH c #594747",
"mk c #5a4749",
"#x c #5a6614",
"nN c #5c5355",
"#w c #5e6b13",
"iS c #5f4a4a",
"lP c #5f4f50",
"nB c #5f575a",
"eX c #604436",
"mN c #60454c",
"mP c #604f50",
"fV c #613524",
"mB c #615151",
".2 c #616f16",
".x c #626f16",
"lO c #64484f",
"#3 c #646f1a",
"hK c #654d48",
"hS c #654f4e",
".3 c #667416",
"gb c #686665",
"fr c #693b28",
"nA c #696868",
".w c #6a7c1a",
".7 c #6e701e",
"#v c #6e8018",
"nE c #6f5c50",
"kl c #6f6261",
"#6 c #6f6e25",
"#2 c #6f761e",
"ds c #704b38",
"l8 c #705256",
".v c #70821c",
"iT c #714a4c",
".B c #717422",
"jL c #724c4a",
"gT c #73442e",
"mj c #735e62",
"#1 c #73801d",
"mQ c #746a6b",
"eY c #75442c",
"d9 c #757732",
"in c #78585a",
"fs c #7a4129",
"go c #7a442b",
".1 c #7a8f17",
"gU c #7b432b",
"dZ c #7b442b",
"es c #7b4a34",
"fW c #7c4429",
"nG c #7c675c",
"#B c #7c7b2d",
".j c #7c8238",
"dt c #7d462d",
"eD c #7d883b",
"cZ c #7e472d",
"lQ c #7e6a6d",
"an c #7f452a",
"ct c #7f472d",
"hT c #7f6b6c",
".u c #7f9619",
"bZ c #80462c",
"am c #80472a",
"#S c #80482b",
"iK c #806e70",
"eC c #808936",
"#T c #81492d",
"hn c #815641",
"#u c #819819",
"bt c #82482b",
"je c #826969",
"nf c #827374",
".i c #838c2e",
"fg c #85786f",
"e9 c #859244",
"fD c #868c44",
"nO c #878386",
".0 c #87a019",
"dY c #88593f",
"#n c #895637",
"gI c #898180",
".P c #898e35",
"iz c #8a7757",
"jm c #8a7a7d",
"c. c #8a8f3c",
".y c #8a904e",
"aS c #8b4c2b",
"im c #8b7a7a",
".O c #8b9234",
"aE c #8b962f",
"gp c #8c4f2f",
"gq c #8c5236",
"lM c #8c7477",
"a8 c #8c9232",
"e8 c #8c9847",
"et c #8d593b",
"#j c #8d933c",
".4 c #8d9357",
"as c #8e6c57",
"#X c #8e6e58",
"jR c #8e7a6f",
"cE c #8e9149",
"bE c #8e9443",
"fX c #8f5134",
"aR c #8f522f",
"cY c #8f6247",
"m7 c #8f8284",
"nj c #8f8d8f",
"b. c #8f983c",
"jf c #906d70",
"bM c #908f2d",
"f7 c #90914e",
"#i c #909537",
"bl c #91532f",
"ao c #915534",
"fh c #916346",
"dD c #918648",
"d. c #919043",
"#P c #919438",
"e7 c #91945c",
"fC c #919b53",
"ei c #92512e",
"bm c #925331",
"aZ c #925b3b",
"nP c #92857c",
"#7 c #928e32",
"cF c #928f37",
"aA c #928f40",
"c# c #92973f",
"#0 c #92a624",
"nF c #937d6c",
"aT c #945633",
"gV c #945b3c",
"#W c #946248",
"bS c #956b54",
".s c #95814d",
"mO c #958387",
"gm c #966c4d",
"#Y c #967c69",
"lh c #967d7e",
"aC c #969639",
"bR c #975632",
"i5 c #978770",
"fJ c #97958e",
"#C c #979c34",
"mJ c #986c66",
"#8 c #988d37",
"cs c #996b4e",
"ie c #998a8a",
"nx c #99938e",
"eN c #9a6343",
"bg c #9a9f2c",
"at c #9b6b45",
"aY c #9b6c4e",
"d0 c #9b6c52",
"#r c #9b7354",
"h5 c #9b8953",
"m8 c #9b8a8f",
"bL c #9b9d28",
"#R c #9d6339",
"#m c #9d673c",
"kN c #9d726d",
"gM c #9d9082",
"av c #9d9e3a",
"bF c #9da447",
".b c #9da73e",
"hl c #9e7a61",
"lm c #9e7a77",
"b0 c #9e814b",
"#D c #9e9938",
"al c #9f643e",
"eu c #9f7458",
"lk c #9f878e",
"cD c #9f8d44",
"#k c #9fa86d",
"jl c #a07774",
"#9 c #a0983f",
"eB c #a0a260",
".8 c #a0a334",
".c c #a0a33e",
"di c #a1673e",
"nd c #a18d92",
"#e c #a1a735",
".d c #a1a834",
"#y c #a1a96e",
"dO c #a2613a",
"kO c #a27370",
"#o c #a27457",
"eW c #a28068",
"c9 c #a2904a",
"bN c #a29b45",
"#z c #a29d6f",
"fB c #a29d7b",
"bh c #a2a534",
"#O c #a2aa39",
"bk c #a36941",
"#U c #a37054",
"m3 c #a38c91",
"aB c #a39941",
".9 c #a39f3b",
"bQ c #a46942",
"cO c #a46e45",
"bY c #a4775a",
"gS c #a47957",
"cu c #a48056",
"bK c #a4a629",
"#f c #a4a643",
"aQ c #a56b42",
"bs c #a57453",
".C c #a59f37",
"cP c #a66a44",
"hz c #a6905c",
"f5 c #a69f70",
"a7 c #a6a446",
"#d c #a6ae3c",
"nk c #a78386",
".Y c #a7955d",
"b8 c #a79f4b",
"bC c #a89d49",
"dC c #a89e76",
".5 c #a8a573",
"d8 c #a8a66d",
"#h c #a8ac43",
".M c #a8ae48",
".p c #a8b167",
"ci c #a9754b",
"bu c #a98c52",
"gA c #a99b87",
".n c #a9ac69",
"ak c #aa7144",
"#V c #aa7858",
"lL c #aa827f",
"cW c #aa8976",
"g7 c #aa9465",
"ml c #aa9799",
"mi c #aa979b",
"b9 c #aa9e49",
"#4 c #aaad80",
"d# c #ab9b4b",
"cC c #aba551",
"#5 c #aba772",
"f6 c #abaa8a",
"#g c #abaf58",
".I c #abb240",
"c0 c #ac876c",
"g6 c #ac987b",
".D c #aca137",
".o c #acad64",
".a c #acb633",
"cB c #ada563",
".f c #adb241",
"fp c #ae8d74",
"jn c #ae9197",
"hy c #aea18c",
"cf c #aeaa3c",
".g c #aeb643",
"cj c #af7c53",
"du c #af8b74",
"#Z c #af9960",
"ax c #afa345",
"jz c #afa496",
".r c #afac4d",
"aM c #afb428",
".H c #afb842",
"eh c #b07345",
"dj c #b0754f",
"me c #b08384",
"gW c #b08972",
"e0 c #b08c71",
"lg c #b08e8e",
"#Q c #b09256",
"bf c #b0b328",
"b# c #b0b63d",
".L c #b0b642",
"a9 c #b1a54d",
"i4 c #b28d89",
"kk c #b29296",
"au c #b2b044",
"dN c #b37b4a",
"#q c #b38460",
"fT c #b38c69",
"gB c #b3a476",
"gz c #b3a593",
"b2 c #b3ae63",
"#c c #b3b848",
"h4 c #b49a82",
"a0 c #b49f56",
"g5 c #b4a689",
".X c #b4a756",
"#p c #b5886b",
"aj c #b5a04f",
"bD c #b5a54b",
"aw c #b5a94e",
"aD c #b5ab4e",
"az c #b5ae73",
"er c #b68a6a",
"l3 c #b6989b",
"cG c #b6b148",
"aL c #b6b926",
"a. c #b6bc3c",
"m9 c #b79b9d",
"hx c #b7ad9d",
"a2 c #b7af58",
"aN c #b7be31",
".Q c #b7be4e",
"cA c #b8ad6d",
"af c #b8bc22",
"be c #b8bc26",
".e c #b8bf3f",
".N c #b8bf41",
".G c #b8c140",
"ck c #b97950",
"dP c #b97f54",
".U c #b9936a",
"ar c #b9997a",
"dB c #b9ae94",
"fA c #b9b19e",
".t c #b9b84d",
"aF c #b9be41",
"jK c #ba8a73",
"hc c #bab2ad",
"e6 c #bab3a0",
"ca c #babe56",
"aK c #babf22",
"bP c #bb8c62",
"lC c #bb9296",
"hI c #bb989d",
".T c #bb9969",
"fu c #bb9980",
"#s c #bba880",
"#b c #bbc247",
"kR c #bc8390",
"fY c #bc8e6a",
"hk c #bc9671",
"if c #bc979e",
"nc c #bc9b9e",
"b7 c #bcab63",
"ad c #bcc227",
"aq c #bd9371",
"eZ c #bd9a7b",
".z c #bdb88b",
"aO c #bdc050",
"dh c #be8858",
"bj c #be8c60",
"b1 c #beba69",
"ae c #bec426",
"ap c #bf8f6d",
"da c #bfaa61",
"dE c #bfb07c",
"dA c #bfb5a3",
"ce c #bfbf39",
"a# c #bfc333",
".K c #bfc747",
"bO c #c09460",
"ft c #c09c78",
"cg c #c0b158",
".Z c #c0ba54",
".m c #c0bd94",
"a3 c #c1b862",
"#N c #c1c650",
"ej c #c2936e",
"bi c #c2a85b",
"#l c #c2ba9f",
"gy c #c2baaa",
"g4 c #c2bbac",
"f4 c #c2bca4",
"bJ c #c2c437",
".J c #c2c74e",
"eg c #c39360",
"iy c #c39f9c",
"h3 c #c3a6a2",
"jy c #c3a9a5",
"bB c #c3b763",
"ff c #c3c2b7",
"#M c #c3c950",
"ai c #c3cd4c",
"jQ c #c49672",
"cN c #c49764",
"eM c #c49f81",
"dz c #c4bbab",
"nV c #c4c1b5",
"ay c #c4c295",
"aP c #c59b66",
".V c #c5a378",
"l6 c #c5a4ad",
"hw c #c5bcae",
"l4 c #c5bdbe",
"#L c #c5cd41",
"cX c #c69c7d",
"h2 c #c6b7ad",
"ll c #c6babd",
"fI c #c6c2b5",
"ag c #c6cb2e",
"b6 c #c7b063",
"j4 c #c7c0b3",
"aJ c #c7ca24",
".h c #c8d246",
"b3 c #c9b76f",
"cz c #c9b979",
"cx c #c9ba7c",
"a6 c #c9bb62",
"k6 c #c9bfc0",
"j3 c #c9c2b8",
"ac c #c9cd1b",
"hR c #caab9b",
"gr c #cab09c",
"cw c #cabd82",
"d7 c #cac4a7",
"#t c #cac868",
".W c #cbad74",
"lz c #cbaeb3",
"jU c #cbb5b4",
"a1 c #cbc06e",
"mg c #cbc2c5",
"f3 c #cbc5b6",
"k1 c #cbc5b9",
"#a c #cbd152",
"ah c #cbd240",
"mD c #ccb0af",
"mL c #ccc2c5",
"bw c #ccc380",
"dy c #ccc4b4",
"lu c #ccc6b9",
"fz c #ccc7b9",
"g3 c #cccabd",
"k0 c #cccac0",
"bG c #ccd35a",
"mR c #cd9ea4",
"dM c #cda36e",
"h1 c #cdbdb7",
"c8 c #cdc088",
"mW c #cdc1b9",
"e1 c #cdc2b2",
"kx c #cdc2b9",
"e5 c #cdc6b8",
"gx c #cdc7ba",
"nq c #cdc8bb",
"nU c #cdcbc3",
"bn c #ce9e75",
"ko c #cea4aa",
"ch c #ceaf6f",
"k5 c #ceafb1",
"j2 c #ceb4b3",
"kZ c #cebebd",
"gH c #cecdcb",
"bH c #cece4a",
"mp c #cfa6af",
"ms c #cfb7b3",
"gg c #cfbda5",
"nS c #cfc1be",
"bv c #cfc579",
"ne c #cfc6c7",
"nT c #cfcbc4",
".q c #cfce6b",
"bI c #cfd13d",
"#J c #cfd43b",
"cy c #d0be7d",
"lY c #d0c4bb",
"cI c #d0c953",
"eA c #d0cbb0",
"hv c #d0cdc1",
"bd c #d0d32d",
"#K c #d0d538",
"km c #d1cccd",
"iL c #d29eaa",
"lV c #d2acb4",
"np c #d2bab8",
"cv c #d2c991",
"d6 c #d2cbb9",
"dx c #d2ccbb",
"dX c #d3a683",
"j1 c #d3b8b9",
"f2 c #d3cfc3",
"ga c #d3d0c3",
"a4 c #d3d1a1",
"g2 c #d3d3c5",
"lt c #d4b9b8",
"b4 c #d4c176",
"fy c #d4d2c6",
"eU c #d5a986",
"kj c #d5aca4",
"kp c #d5acb5",
"bT c #d5b395",
"nR c #d5c1c1",
"gX c #d5c2b4",
"bx c #d5c485",
"dF c #d5c58f",
"eT c #d69885",
"el c #d6a587",
"iv c #d6a6b1",
"cr c #d6af8b",
"cq c #d6b396",
"j0 c #d6bab9",
"h0 c #d6baba",
"jw c #d6babf",
"ju c #d6bfbf",
"jv c #d6c0bf",
"dG c #d6c9a2",
"e4 c #d6d0c3",
"hu c #d6d3c8",
"#I c #d6d53d",
".k c #d6d7b2",
"jM c #d79a8f",
"i1 c #d7abb6",
"hj c #d7b993",
"jx c #d7b9be",
".S c #d7ccb2",
"#E c #d7ce50",
"nu c #d7cec6",
"gw c #d7d3c7",
"hZ c #d8bcbd",
"dH c #d8cdab",
"dw c #d8d2c2",
"iQ c #d9978b",
"aU c #d9ab80",
"db c #d9c584",
"dc c #d9c78e",
"nt c #d9d3ca",
"nr c #d9d6ca",
"aa c #d9d833",
"lU c #dab4bb",
"ky c #dabfbe",
"lZ c #dac3c2",
"d5 c #dad3c1",
"lA c #dad4d5",
"ht c #dad8cc",
"gG c #dad9d4",
"iu c #dba2b4",
"jZ c #dbbfbf",
"b5 c #dbc47c",
"lv c #dbc5c1",
"nv c #dbcbc6",
"by c #dbd39f",
"ns c #dbd3cb",
"fx c #dbdacd",
"aG c #dbdf49",
"cb c #dbe26b",
"hQ c #dca398",
"ik c #dca6a0",
"cm c #dcbba0",
"mt c #dcc3c1",
"jp c #dcc3c4",
"bA c #dcc97e",
"#. c #dcd464",
"f1 c #dcd8cc",
"cH c #dcda67",
"g1 c #dcdace",
"eR c #dda881",
"jo c #dda8b5",
"cl c #ddae85",
"hL c #ddc2b7",
"mX c #ddcac5",
"mw c #ddcac6",
"j8 c #ddcec6",
"bz c #ddd08e",
"dI c #ddd5b5",
"hs c #dddace",
"aI c #ddde36",
"dg c #dec798",
"nw c #ded1cd",
"c3 c #ded4ba",
"mT c #dfa4b4",
"jV c #dfa8b2",
"jk c #dfaca7",
"em c #dfb29a",
"kV c #dfb6b8",
"jC c #dfbabe",
"k4 c #dfbfc1",
"n. c #dfc5c7",
"i6 c #dfcec8",
"ev c #dfd3c3",
"jD c #dfd6c9",
"dv c #dfdac9",
"gv c #dfdbcf",
"e3 c #dfdcce",
"cc c #dfe452",
"kq c #e0acae",
"cn c #e0bc9e",
"jB c #e0bcc2",
"jT c #e0bdc1",
"cM c #e0c48b",
"j5 c #e0c6c4",
"dL c #e0cda9",
"j9 c #e0cdc8",
"dd c #e0d2a4",
"jA c #e0d5cc",
"gu c #e0dcd0",
"g0 c #e0dcd1",
"ij c #e1a59c",
"il c #e1acb8",
"en c #e1af98",
"dU c #e1b492",
"kY c #e1b9c4",
"fj c #e1c6ac",
"h6 c #e1d3ca",
"c4 c #e1d5ba",
"e. c #e1d6ba",
"a5 c #e1d799",
"de c #e1d7af",
".E c #e1db86",
"d4 c #e1dbcb",
"my c #e1dbde",
"f0 c #e1ddd1",
"ba c #e1e470",
"eS c #e29f90",
"hP c #e2b0a5",
"kU c #e2b995",
"i3 c #e2b9c4",
"iw c #e2bbc6",
"nQ c #e2c3b2",
"iA c #e2d0cb",
"ef c #e2d3b5",
"df c #e2d6ad",
"c2 c #e2d8be",
"hA c #e2d8cc",
"ez c #e2dbca",
"id c #e2dbdd",
"fw c #e2ded2",
"gt c #e2dfd3",
"fn c #e3b990",
"dr c #e3bc91",
"gR c #e3c8a5",
"cL c #e3d18f",
"c7 c #e3d6b3",
"c6 c #e3d7b8",
"c5 c #e3d8bb",
"dJ c #e3dbbf",
"#G c #e3e24c",
"#F c #e3e45b",
"#H c #e3e54b",
"kr c #e4ada2",
"ln c #e4afa7",
"lT c #e4afbf",
"ly c #e4bbc3",
"eO c #e4bea4",
"fo c #e4c098",
"li c #e4d9da",
"e2 c #e4e0d4",
"cd c #e4e55a",
"jd c #e5a0ad",
"m0 c #e5bac5",
"dT c #e5bc9a",
"i2 c #e5beca",
"cV c #e5c1a0",
"hY c #e5c1c6",
"no c #e5c5ce",
"kw c #e5c9d0",
"mV c #e5ccd2",
"kP c #e5ced1",
"fv c #e5e3d2",
"fm c #e6b793",
"eq c #e6bda1",
"ks c #e6bdc4",
"kB c #e6beca",
"i0 c #e6becb",
"eV c #e6c4a1",
"hB c #e6c6c8",
"ls c #e6ccd3",
"e# c #e6ddc1",
"c1 c #e6ddc4",
"dK c #e6dec5",
"fZ c #e6dfd1",
"gD c #e6e0cf",
"g8 c #e6e0d2",
"gC c #e6e1ce",
"gE c #e6e3d2",
"bb c #e6e55c",
"mn c #e7acbe",
"iP c #e7b09c",
"it c #e7bac8",
"kt c #e7bbc9",
"kT c #e7c1bb",
"eQ c #e7c29e",
"cp c #e7c2a1",
"fS c #e7c9a3",
"ey c #e7e1d1",
"g9 c #e7e1d4",
"jJ c #e8b1a6",
"kA c #e8bdc9",
"eo c #e8bf9f",
"ho c #e8e1d6",
"d3 c #e8e2d4",
"g. c #e8e4d4",
"gF c #e8e5d7",
".R c #e8edbb",
"lB c #e9b6c0",
"mv c #e9c1cc",
"ek c #e9c39d",
"hC c #e9c3c9",
"gl c #e9d1b0",
"hU c #e9d5d6",
"i9 c #eab9c7",
"na c #eac3ab",
"l2 c #eac5d0",
"iR c #eac9d3",
"fN c #ead2b7",
"ea c #eae1c6",
"g# c #eae4d5",
"ab c #eae52a",
"iZ c #ebb0c3",
"mm c #ebb5be",
"m1 c #ebbeca",
"nl c #ebc4cd",
"i7 c #ebc5d0",
"lr c #ebc8d3",
"nn c #ebd6dd",
"gZ c #ebddd8",
"eE c #ebe4cc",
"eb c #ebe5ce",
"f9 c #ebe5d4",
"mM c #ebe7e9",
"d1 c #ebe8d8",
"bc c #ebec45",
"jY c #ecb5c0",
"kH c #ecb9a3",
"i8 c #ecc8d2",
"nm c #ecd2da",
"lX c #ecdadf",
"cK c #ece07d",
"h. c #ece2dd",
"iJ c #ece4e6",
"eF c #ece5d0",
"fF c #ece6d3",
"f8 c #ece6d4",
"fG c #ece7d4",
"fH c #ece8d5",
"nb c #edb8ac",
"cQ c #edc2a1",
"le c #edc5b0",
"mo c #edd2db",
"eP c #edd3b4",
"jE c #ede3dd",
"ec c #ede6cf",
"eG c #ede6d1",
"fE c #ede6d2",
"f. c #ede7d1",
"f# c #ede7d4",
"d2 c #ede7da",
"fb c #ede8d5",
"ex c #ede8d7",
".# c #edea78",
"fd c #edead7",
"iV c #ee9db5",
"jW c #eeb2bb",
"lG c #eebaac",
"ke c #eec6c6",
"mZ c #eec8d3",
"bX c #eec9a1",
"mE c #eecbaf",
"ee c #eee7d0",
"fa c #eee7d5",
"fc c #eee8d5",
"eH c #eee8d6",
"ed c #eee9d4",
"ew c #eeebdd",
".F c #eeec95",
"jg c #efaeb3",
"kI c #efb3a9",
"jq c #efb3c4",
"md c #efb7bc",
"lK c #efb8a8",
"lJ c #efc4c0",
"br c #efc99e",
"bW c #efcaa7",
"bU c #efccad",
"iB c #efccd7",
"h7 c #efd1db",
"fe c #efecda",
"k9 c #f0bbb5",
"ji c #f0bcb1",
"io c #f0bece",
"ma c #f0c1b8",
"mH c #f0c1c0",
"ki c #f0c4b0",
"kL c #f0ccb4",
"ep c #f0cfb0",
"dS c #f0d4b9",
"mY c #f0d4db",
"ix c #f0e0e3",
"eI c #f0e9d8",
"eJ c #f0ecd8",
"Qt c #f0ed87",
"eK c #f0eddb",
"aH c #f0f057",
"is c #f1b0c6",
"ld c #f1b3b8",
"j. c #f1b3c8",
"kd c #f1b8ba",
"k8 c #f1bbc8",
"kM c #f1bdb3",
"iU c #f1bece",
"jt c #f1c2d0",
"jN c #f1ccba",
"mS c #f1cfd9",
"jO c #f1d2ba",
"lq c #f1d2dd",
"co c #f1d3b0",
"eL c #f1eedb",
".l c #f1f1ec",
"ib c #f29ab5",
"jr c #f29cb2",
"la c #f2bbb9",
"hH c #f2bfc6",
"lb c #f2c0c0",
"n# c #f2c5c1",
"l9 c #f2ccd4",
"aX c #f2cea7",
"bV c #f2cfb0",
"dQ c #f2d4af",
"kz c #f2d9e2",
"lx c #f2dbe3",
"mx c #f2dde4",
"kC c #f2e5ea",
"cJ c #f2ec78",
"gs c #f2ece9",
"hG c #f39baf",
"kb c #f3bac1",
"lf c #f3bebf",
"kc c #f3cacb",
"hr c #f3ccd2",
"jP c #f3d3b8",
"fO c #f3dabb",
"k3 c #f3dbe4",
"m2 c #f3dce4",
"j7 c #f3dde4",
"hf c #f3e9d0",
"lN c #f3f1f2",
"hp c #f3f2ed",
"iW c #f47c9f",
"kE c #f4acb4",
"iO c #f4b8c1",
"ii c #f4b9bf",
"mI c #f4babd",
"jc c #f4bacb",
"iN c #f4bbc5",
"mF c #f4bebc",
"jj c #f4c1c3",
"jh c #f4c5c5",
"bo c #f4d0aa",
"do c #f4d0ae",
"dV c #f4d4b6",
"fi c #f4d4b7",
"dq c #f4d5b7",
"mc c #f4d5d8",
"hV c #f4d6dd",
"m# c #f4d8b8",
"k. c #f4dee6",
"iC c #f4e0e7",
"iH c #f5a0ba",
"jX c #f5b4c0",
"jI c #f5b6c3",
"ir c #f5b7cd",
"lH c #f5c4c7",
"lc c #f5c7cb",
"iD c #f5d4e1",
"dm c #f5d6b8",
"kh c #f5d6d9",
"cU c #f5d7b7",
"kK c #f5d7d9",
"kG c #f5dadc",
"kD c #f5dce1",
"l1 c #f5e0e8",
"kW c #f5eaee",
"lj c #f5f6f6",
"js c #f6a7ba",
"jb c #f6aac4",
"iX c #f6bbce",
"iM c #f6bec8",
"lF c #f6c0be",
"hD c #f6c1d3",
"ip c #f6c4d5",
"iI c #f6cedc",
"ig c #f6d2da",
"dR c #f6d6b5",
"kJ c #f6d6da",
"hO c #f6d7c1",
"dp c #f6d8b9",
"cT c #f6dcbe",
"h8 c #f6e4eb",
"gh c #f6e7ca",
"mq c #f6e9ed",
"kf c #f6ebec",
"lS c #f6ebef",
"mr c #f6edf0",
"kS c #f6f5f6",
"iY c #f791b2",
"iG c #f7b3cc",
"m. c #f7c7c0",
"ih c #f7c7ce",
"dk c #f7d6b7",
"hb c #f7d9e1",
"ic c #f7dbe5",
"dn c #f7dcc2",
"fl c #f7e1c2",
"mu c #f7e7ed",
"hi c #f7e8cb",
"hh c #f7e8cc",
"gQ c #f7e9cc",
"gi c #f7e9cd",
"gk c #f7eace",
"## c #f7f4d5",
"lR c #f7f5f6",
"mh c #f7f6f7",
"iE c #f8a9c9",
"hX c #f8b1c2",
"ia c #f8b7cd",
"hW c #f8bcce",
"i# c #f8c6d9",
"l# c #f8cdd4",
"hN c #f8d0c3",
"dW c #f8d5b6",
"bq c #f8d8b5",
"aV c #f8d8b8",
"bp c #f8d9b6",
"cR c #f8dcbd",
"kg c #f8e3e6",
"fR c #f8e4c8",
"fP c #f8e6ca",
"gP c #f8e8cd",
"hq c #f8e9ed",
"gO c #f8ead1",
"gN c #f8ebd1",
"lw c #f8edf1",
"l0 c #f8edf2",
"k2 c #f8eef1",
"j6 c #f8eef2",
"lW c #f8f4f5",
"l5 c #f8f4f7",
"i. c #f9acc9",
"jH c #f9b6c9",
"hF c #f9b7ca",
"j# c #f9bdd3",
"jF c #f9becf",
"iq c #f9c3d5",
"hE c #f9c5d7",
"ha c #f9cad7",
"hM c #f9cdc8",
"iF c #f9cddf",
"h9 c #f9d4e1",
"lE c #f9dbdf",
"cS c #f9ddc2",
"aW c #f9dfc1",
"ka c #f9e2ea",
"fQ c #f9e6c8",
"gj c #f9e8cb",
"hg c #f9ebd1",
"ku c #f9f2f4",
"lo c #f9f3f4",
"kv c #f9f5f6",
"kn c #f9f7f8",
"mC c #f9f9f9",
"mU c #f9f9fa",
"ja c #fabdd4",
"dl c #fadbbe",
"gY c #fae2e5",
"h# c #fae6ed",
"fk c #fae7ca",
"k# c #faf1f5",
"kQ c #faf5f8",
"kX c #faf8f8",
"lp c #faf9fa",
"lI c #fafbfa",
"lD c #fafbfb",
"jG c #fbb7cb",
"kF c #fbf6f7",
"mG c #fbfcfb",
"k7 c #fcf0f5",
"mb c #fcfafa",
"l. c #fefbfc",
"Qt.#.a.b.c.d.e.f.g.h.i.j.k.l.m.n.o.p.q.r.s.t.u.v.w.x.y.z.A.B.C.D",
".E.F.G.H.I.J.K.L.M.N.O.P.Q.R.S.T.U.V.W.X.Y.Z.0.1.2.3.4.5.6.7.8.9",
"#.###a#b#c#d#e#f#g#h#i#j#k#l#m#n#o#p#q#r#s#t#u#v#w#x#y#z#A#B#C#D",
"#E#F#G#H#I#J#K#L#M#N#O#P#Q#R#S#T#U#V#W#X#Y#Z#0#1#2#3#4#5#6#7#8#9",
"a.a#aaabacadaeafagahaiajakalamanaoapaqarasatauavawaxayazaAaBaCaD",
"aEaFaGaHaIaJaKaLaMaNaOaPaQaRaSaTaUaVaWaXaYaZa0a1a2a3a4a5a6a7a8a9",
"b.b#babbbcbdbebfbgbhbibjbkblbmbnbobpbqbrbsbtbubvbwbxbybzbAbBbCbD",
"bEbFbGbHbIbJbKbLbMbNbObPbQbRbSbTbUbVbWbXbYbZb0b1b2b3b4b5b6b7b8b9",
"c.c#cacbcccdcecfcgchcicjckclcmcncocpcqcrcsctcucvcwcxcyczcAcBcCcD",
"cEcFcGcHcIcJcKcLcMcNcOcPcQcRcScTcUcVcWcXcYcZc0c1c2c3c4c5c6c7c8c9",
"d.d#dadbdcdddedfdgdhdidjdkdldmdndodpdqdrdsdtdudvdwdxdydzdAdBdCdD",
"dEdFdGdHdIdJdKdLdMdNdOdPdQdRdSdTdUdVdWdXdYdZd0d1d2d3d4d5d6d7d8d9",
"e.e#eaebecedeeefegeheiejekelemeneoepeqereseteuevewexeyezeAeBeCeD",
"eEeFeGeHeIeJeKeLeMeNeOePeQeReSeTeUeVeWeXeYeZe0e1e2e3e4e5e6e7e8e9",
"f.f#fafbfcfdfefffgfhfifjfkflfmfnfofpfqfrfsftfufvfwfxfyfzfAfBfCfD",
"fEfFfbfGfHfIfJfKfLfMfNfOfPfQfRfSfTfUfVfWfXfYfZe2f0f1f2f3f4f5f6f7",
"f8f9g.g#gagbgcgdgegfggghgigjgkglgmgngogpgqgrgsgtgugvgwgxgygzgAgB",
"gCgDgEgFgGgHgIgJgKgLgMgNgOgPgQgRgSgTgUgVgWgXgYgZg0g1g2g3g4g5g6g7",
"g8g8g9h.h#hahbhchdhefghfhghhhihjhkhlhmhnhohphqhrhshthuhvhwhxhyhz",
"hAhBhChDhEhFhGhHhIhJhKhLhMhNhOhPhQhRhShThUhVhWhXhYhZh0h1h2h3h4h5",
"h6h7h8h9i.i#iaibicidieifigihiiijikiliminioipiqirisitiuiviwixiyiz",
"iAiBiCiDiEiFiGiHiIiJiKiLiMiNiOiPiQiRiSiTiUiViWiXiYiZi0i1i2i3i4i5",
"i6i7i8i9j.j#jajbjcjdjejfjgjhjijjjkjljmjnjojpjqjrjsjtjujvjwjxjyjz",
"jAjBjCjDjEjFjGjHjIjJjKjLjMjNjOjPjQjRjSjfjTjUjVjWjXjYjZj0j1j2j3j4",
"j5j6j7j8j9k.k#kakbkckdkekfkgkhkikjkkklkmknkokpkqkrksktkukvkwkxfz",
"kyj6kzkAkBkCkvkDkEkFkGkHkIkJkKkLkMkNkOkPkQkRkSkTkUkVkWkXkYkZk0k1",
"kyk2k3k4k5k6k7k8k9l.l#lalblcldlelflglhliljlklllmlnlolplqlrlsltlu",
"lvlwlxlylzlAk7lBlClDlElFlGlHlIlJlKlLlMlAlNlOlPlQlRlSlTlUlVlWlXlY",
"lZl0l1l2l3l4l5l6l7l8l9m.m#mambmcmdmemfmgmhmimjmkmlmmmnmompmqmrms",
"mtl0mumvmwmxmymzmAmBmCmDmEmFmGmHmImJmKmLmMmNmOmPmQmRmSmCmTmUmVmW",
"mXmYmZm0m1m2m3m4m5m6m7m8m9n.n#nanbncndnenfngnhninjnknlnmnnnonpnq",
"nrnsntnunvnwnxninynznAnBnCnDnEnFnGnHnInJnKnLnMnNnOnPnQnRnSnTnUnV"};
