/* XPM */
static char *dummy[]={
"32 32 728 2",
"Qt c None",
"bX c #010100",
"bW c #010101",
"jn c #010101",
"a3 c #040302",
".o c #040303",
".e c #050404",
".d c #040302",
".D c #040403",
".C c #090706",
"fS c #090806",
"iF c #0a0807",
".# c #0a0807",
"gL c #0d0b09",
"#c c #0e0c0a",
".n c #120f0d",
"a4 c #15120e",
"jm c #191511",
"hB c #191511",
"ag c #18130f",
"#b c #1f1a15",
".c c #241d19",
"co c #2a231c",
".a c #281f1a",
"aE c #322a22",
"iZ c #322b22",
".U c #352d24",
"gM c #362d24",
".b c #362a23",
"cn c #3a3127",
".B c #3f352a",
".f c #41322a",
"#x c #514536",
"h0 c #524537",
"gj c #564839",
"jv c #56493a",
"#y c #564e44",
"af c #5f5040",
"jc c #625342",
"bt c #635342",
"hZ c #6a5a47",
"#T c #6c5b48",
"il c #6c5b49",
"eY c #6e5d4a",
".p c #6a5244",
".V c #706050",
".A c #75695d",
"aF c #776755",
"bu c #7a6752",
"jo c #816d56",
"cO c #816d57",
".m c #7e6d5f",
"de c #836e58",
"eu c #8c765d",
"hb c #8d775e",
"dE c #967f65",
"d5 c #998167",
".T c #9d8569",
"#U c #9a856f",
"iY c #a78c70",
"ik c #a78d70",
".E c #9d7f66",
"#a c #aa8f72",
"dd c #b69a7a",
"jp c #b79a7a",
"iE c #b99c7c",
".g c #b28c75",
"ju c #c5a684",
"fp c #c6a785",
"a2 c #c9aa87",
"i0 c #caaa87",
"bV c #d0af8b",
"bY c #d4b38e",
".l c #c9a086",
"jq c #dab892",
"dD c #dbb893",
".q c #cea285",
".z c #e0d1be",
"jt c #e3c098",
"eX c #e4c099",
"#d c #e7d1b3",
"#w c #e6c29a",
"gK c #e7c39b",
"hA c #e8c39b",
".S c #e8c49b",
"jb c #e8c49c",
"a5 c #e6c7a5",
"fT c #e8c49c",
".h c #d5a286",
"aD c #ecc79e",
"iG c #edc79e",
"ah c #e7bf96",
"jr c #edc89f",
"d4 c #eec99f",
"js c #f1cba1",
"h1 c #efc9a0",
"#S c #efcaa1",
"et c #f1cba1",
".r c #d6a286",
".F c #d9a886",
".W c #dbac8d",
".k c #e7b796",
".i c #e9bb99",
"gN c #edc89f",
"ae c #efcaa1",
"## c #f0cba2",
".j c #f1c6a1",
"im c #f1cda2",
"fY c #2f2a2a",
"fr c #64675e",
"fX c #6f6a69",
"fZ c #765241",
"c9 c #78574b",
"e1 c #7e716c",
"bf c #7f6254",
"b5 c #816251",
"bp c #819172",
"a0 c #819173",
"aA c #829374",
"bg c #836655",
"bT c #839375",
"bq c #839474",
"aB c #839475",
"aa c #849475",
"ab c #849576",
"ac c #859576",
"#P c #859677",
"#Q c #869677",
"#s c #869778",
"#t c #879878",
"br c #8a9878",
"bS c #8c8e75",
"cI c #937469",
"gO c #948b83",
"#u c #959f7e",
"b6 c #967864",
"d. c #96786e",
"cH c #97756b",
"c8 c #987c70",
"cg c #996555",
"h3 c #9d7554",
"dR c #9e5958",
"bI c #9f8266",
"az c #9f9581",
"eb c #a0655d",
"ex c #a0725c",
"a# c #a09c86",
"bo c #a18c77",
"aZ c #a1907e",
"d7 c #a19381",
"c3 c #a26a63",
".9 c #a2a683",
"eg c #a35959",
"bO c #a3685a",
"ej c #a47556",
"fv c #a48377",
"ad c #a4a583",
"e3 c #a77d66",
"eC c #a86f6b",
".G c #a87c65",
"e8 c #a97f5c",
"bR c #a99183",
"fU c #a99e91",
"aC c #a9a885",
"dr c #aa6863",
"#O c #aaab95",
"eK c #ab4b4e",
"du c #ab6d64",
"bH c #ac8f72",
"cQ c #ad9d7d",
"eN c #ae815c",
"f# c #af7065",
"eG c #af706a",
"fg c #af7e5a",
"fJ c #af835c",
"cu c #af8e86",
"c7 c #b07969",
"gD c #b08a63",
"eE c #b08b7d",
"cG c #b1806f",
"#R c #b1ac89",
"dt c #b37e6b",
"f. c #b45448",
"dS c #b46a58",
".8 c #b4a181",
"g7 c #b58e67",
"aI c #b68169",
"ho c #b6827b",
"cw c #b69b7f",
"bU c #b6ae8a",
"dT c #b78972",
"h2 c #b7906e",
"dF c #b7a681",
"e0 c #b7bbb3",
"ez c #b88166",
"ds c #b88974",
"df c #b8a882",
"d6 c #b8aa85",
"fC c #b95c5a",
"eB c #b98270",
"fz c #b98f64",
"dG c #b99f85",
"aj c #ba876e",
"gk c #baa085",
"ea c #bb856d",
"hD c #bb9384",
"gU c #bb956a",
"cf c #bc8a77",
"c6 c #bc8a7c",
".u c #bc8f76",
"cv c #bc9e82",
"eL c #bd674c",
"gb c #bd9269",
"b2 c #bd9d8e",
"bJ c #bda098",
"e2 c #bdaca5",
"hy c #bf785c",
".X c #bf8f72",
".v c #bf9277",
"a8 c #bf927e",
"e5 c #bfa5a3",
"cl c #bfae9d",
"dx c #c08a6d",
"eh c #c1694e",
"aL c #c18d73",
"hi c #c1936a",
"dM c #c1a094",
"bh c #c1a28e",
"gl c #c1bcba",
"fc c #c25251",
"hn c #c2757d",
"ei c #c27654",
"hz c #c28267",
"eI c #c2867c",
"c4 c #c38d74",
"ec c #c39b93",
"ev c #c3b089",
"ew c #c3b5a3",
"a1 c #c4b590",
"fs c #c4c2c2",
"h4 c #c57a5c",
"bb c #c58d72",
"at c #c59580",
"#W c #c59677",
"eH c #c59d92",
"d2 c #c5a28f",
"eO c #c67e5c",
"e. c #c69577",
"bk c #c69880",
"d# c #c6ae9e",
"fu c #c6c1bd",
"hx c #c78764",
"dJ c #c79074",
"cC c #c7a288",
"dA c #c7b0a2",
"hE c #c88866",
"b. c #c89077",
"dg c #c8a182",
"cs c #c98e71",
"ba c #c98e72",
"dK c #c99275",
"gr c #c9a272",
"be c #c9a696",
"dw c #c9a786",
"au c #c9a89f",
"dU c #caa98a",
"hM c #cb655a",
"aM c #cb9379",
"a9 c #cb947b",
"bN c #cb997f",
"aU c #cba284",
"ck c #cbb0a5",
"#. c #cbba94",
"ga c #cc8b61",
"b3 c #cc9c86",
"eD c #ccb0af",
"eF c #cd8263",
"hW c #cd8565",
"bD c #cd9277",
"ar c #cd9579",
"#6 c #cda295",
"b4 c #cda692",
"#r c #cdbdaa",
"gw c #ce6c5d",
"as c #ce9277",
"dj c #ce947a",
"d9 c #ce967a",
"aN c #ce967b",
"fd c #cf7e5d",
"eR c #cf8766",
"di c #cf987c",
"e4 c #cf9a7f",
"#K c #cf9e8a",
"dI c #cf9f80",
"bj c #cfa382",
"dz c #cfb6ac",
"gx c #d0615a",
"h6 c #d08463",
"en c #d08766",
"ct c #d09b7c",
"eZ c #d0b992",
"gu c #d18762",
"aq c #d19b84",
"#v c #d1bc96",
"gC c #d2885f",
"cS c #d2997e",
"cr c #d29b7e",
".w c #d29d83",
"d8 c #d29e7d",
"#H c #d2a889",
"bz c #d2aea0",
"bl c #d2b19c",
"he c #d2c3ba",
"ii c #d38f6b",
"fb c #d39789",
"dV c #d39a77",
"bM c #d39a80",
"cT c #d39d7f",
"ef c #d39e92",
".t c #d3a186",
"b1 c #d3a488",
"f5 c #d47562",
"f0 c #d48a66",
"gZ c #d48b72",
"b# c #d48f71",
"cd c #d49b81",
"aQ c #d49c80",
"cc c #d49c81",
"aJ c #d49c82",
"cj c #d4b7ad",
"fV c #d4d1d1",
"gv c #d58a68",
"gX c #d58c64",
"ip c #d58d67",
"cE c #d59d82",
"aK c #d59f83",
"#J c #d5a686",
"dy c #d5a691",
"f1 c #d5a777",
".4 c #d5ae8f",
"i. c #d67463",
"e9 c #d6835d",
"iq c #d68c65",
"hv c #d6976e",
"aO c #d69f82",
"ao c #d69f84",
"bB c #d69f88",
"aw c #d6a795",
"h5 c #d78d66",
"f2 c #d79769",
"cD c #d7a084",
"an c #d7a085",
"dX c #d7a37f",
"a6 c #d7a787",
".H c #d7a78b",
"bQ c #d7b7a8",
"i5 c #d87561",
"#0 c #d8a184",
".N c #d8aa8f",
".M c #d8b08f",
"hC c #d8b59d",
"g0 c #d97e6a",
"fa c #d99486",
"f6 c #d9968e",
"#1 c #d9a387",
"dH c #d9ab8a",
"aT c #d9ad9b",
"cR c #d9b091",
"dv c #d9b696",
"#o c #d9b6a7",
"cP c #d9bf99",
"c. c #d9bf9e",
"fB c #da8864",
"gW c #da9263",
"ak c #daa487",
"al c #daa587",
"e# c #daa783",
"am c #daab8a",
"ey c #daab90",
"dL c #daae8a",
".7 c #daae95",
"cp c #dab892",
".5 c #dab89e",
"c# c #dab98c",
"dq c #dabeb2",
"hd c #dad4d0",
"f7 c #db7f7c",
"eM c #db8d64",
"hV c #db9c72",
"bA c #db9c81",
"eJ c #db9c8f",
"eA c #dba686",
"#e c #dbb092",
"#8 c #dbb89f",
"dh c #dbbda2",
"iO c #dc7b67",
"hm c #dc9371",
"dY c #dc956f",
"#3 c #dca285",
"bx c #dcae8d",
"dl c #dcb08e",
"jh c #dd886f",
"gY c #dd9270",
"gV c #dd9869",
"g8 c #dd9970",
"g6 c #dd9f72",
"bC c #dda58c",
"ap c #dda98a",
"#I c #dda98b",
"#5 c #ddac8a",
"bZ c #ddb891",
"#A c #ddbc9e",
"#9 c #ddbeaf",
"fF c #de7c68",
"gt c #de9768",
"hI c #de9a69",
"ff c #de9b6b",
"bL c #deab8a",
"#4 c #deac8b",
"c5 c #deb08e",
"ch c #deb8a2",
"go c #dec7ba",
"f4 c #df976e",
"fE c #df9c97",
"cU c #dfbca7",
"iu c #e0836c",
"hH c #e0a073",
"hp c #e0a47a",
"#2 c #e0ae8e",
"av c #e0b9a7",
"#7 c #e0c0b7",
"bG c #e0cec7",
"hG c #e1976c",
"fG c #e19972",
"fH c #e19c70",
"gH c #e19c76",
"d1 c #e1af88",
".x c #e1af93",
"#n c #e1b59b",
"ce c #e1b699",
"fx c #e1bba5",
"bn c #e1c0af",
"by c #e1d7d4",
"fI c #e29d6c",
"gs c #e29d6d",
"g# c #e29e6c",
"ir c #e29f73",
"em c #e29f74",
"aV c #e2a896",
"bw c #e2b690",
"cx c #e2ccb6",
"hk c #e39b6a",
"h7 c #e39c6c",
"jj c #e3a87c",
".s c #e3b399",
"dk c #e3b48e",
"cq c #e3b691",
"b7 c #e3c4b6",
"#M c #e3ccba",
"fe c #e49e71",
"fj c #e4a176",
"hl c #e4a272",
"gg c #e4a279",
"bP c #e4b9a2",
"cW c #e4c79f",
"e6 c #e4d7d6",
"f9 c #e59e76",
"g. c #e5a473",
"h. c #e5a47b",
"bi c #e5b791",
"bv c #e5bd9a",
"#p c #e5cebc",
"dZ c #e69d76",
"hj c #e6a270",
"fK c #e6a277",
"#G c #e6b693",
"#m c #e6b793",
"bc c #e6b79f",
"cb c #e6bb93",
"a7 c #e6bd9b",
"e7 c #e6c1a9",
"fD c #e6c3b4",
"cV c #e6cdbf",
"fA c #e79e70",
"f8 c #e79f75",
"gB c #e7a572",
"gA c #e7a875",
"gJ c #e7af85",
"aG c #e7bf97",
"cJ c #e7cfbd",
"ci c #e7d1c3",
"fh c #e8a377",
"gG c #e8a47c",
"g9 c #e8a87c",
"hL c #e8a87d",
"gE c #e8ab7b",
".R c #e8bf9a",
"#f c #e8c099",
"bs c #e8c79e",
"ji c #e9ac7e",
"g5 c #e9ad7e",
".Q c #e9c3a2",
"ed c #e9dbcd",
"fw c #e9e3df",
"i7 c #eaac7a",
"fo c #eab08a",
"fR c #eab68f",
"bK c #eabe96",
"#Z c #eabf99",
".Y c #eac09a",
"fq c #eac89e",
".P c #eac9ad",
".6 c #ead2c0",
"#q c #eadcd0",
"f3 c #eba774",
"hU c #eba97c",
"fM c #ebaa7c",
"gI c #ebac80",
"fy c #ebaf7c",
"eV c #ebaf82",
"aS c #ebb79e",
".Z c #ebbc9a",
"ha c #ebbe95",
"#l c #ebc29d",
"gT c #eca777",
"eP c #eca87b",
"gh c #ecad80",
"fn c #ecaf82",
"hw c #ecb07f",
".I c #ecbb9b",
".J c #ecbb9c",
"aH c #ecc199",
"b0 c #ecc299",
"in c #eccc99",
"hc c #ecd0b2",
"hF c #edaa7a",
"ek c #edaa7b",
"fP c #edac80",
"jk c #edb588",
".K c #edbd9c",
"cF c #edcbaa",
"aR c #edd1ba",
"aY c #eddcce",
"eo c #eeaa7e",
"i6 c #eeab7a",
"hX c #eeab83",
"iK c #eead7c",
"h# c #eeb284",
"jg c #eeb887",
".0 c #eec19e",
"ij c #eec299",
"#F c #eec39c",
"#Y c #eec49b",
"cB c #eed1bc",
"hh c #efa876",
"gf c #efa881",
"ih c #efae7f",
"iC c #efb182",
"hu c #efb284",
"fQ c #efb385",
"g3 c #efb581",
"j# c #efb585",
"je c #efc195",
"ai c #efc69d",
"#X c #efc69e",
"bm c #efd7c5",
"a. c #efdfd0",
"iJ c #f0ab78",
"gS c #f0ab79",
"fO c #f0ab82",
"ge c #f0ac82",
"io c #f0ad7b",
"hJ c #f0af7c",
"gy c #f0b07e",
"gF c #f0b282",
"gR c #f0b488",
"jl c #f0bf92",
"#E c #f0cba5",
"cX c #f0dac5",
"#N c #f0e1d3",
"hN c #f1ae7d",
"gd c #f1af82",
"j. c #f1b07d",
"i2 c #f1b27f",
"gc c #f1b382",
"jf c #f1bc8d",
"er c #f1c59b",
"iD c #f1c69c",
"gi c #f1c89e",
"hY c #f1c89f",
"jd c #f1c9a0",
".L c #f1c9a1",
"eW c #f1ccac",
"d3 c #f1cfb4",
"aW c #f1d1be",
"dN c #f1e3d4",
"i8 c #f2b17e",
"g4 c #f2b382",
"gz c #f2b481",
"i4 c #f2b883",
"ht c #f2bc8f",
"ja c #f2c599",
"i1 c #f2c99e",
"cm c #f2cda4",
"ft c #f2ecea",
"iI c #f3b07e",
"fL c #f3b382",
"i9 c #f3b480",
"d0 c #f3b585",
"hq c #f3b784",
"fm c #f3b786",
"hP c #f3b887",
"eq c #f3ba88",
"dW c #f3c190",
"iX c #f3cba0",
"#g c #f3cca2",
"#h c #f3cda4",
".1 c #f3cfa8",
".2 c #f3d2ac",
".y c #f3dac1",
"ay c #f3e5d8",
"ee c #f3e7d8",
"gp c #f4b17e",
"fl c #f4b487",
"iV c #f4b582",
"iR c #f4b682",
"iU c #f4b884",
"aP c #f4d0b7",
"bE c #f4d3bf",
"dm c #f4d7c2",
"cA c #f4d9c7",
"gq c #f5b27f",
"i3 c #f5b582",
"eQ c #f5b784",
"eS c #f5b786",
"ie c #f5bb8d",
"iW c #f5be8e",
"ib c #f5bf8b",
"#V c #f5d6b2",
"#L c #f5d6cc",
"#D c #f5d7b3",
".O c #f5dbbf",
"fi c #f6b885",
"eT c #f6b888",
"hS c #f6be92",
"iH c #f6c495",
"#j c #f6d7b1",
"#i c #f6d9b5",
"cN c #f6dabb",
".3 c #f6dcbb",
"dB c #f6ead8",
"gQ c #f6ede8",
"iQ c #f7b783",
"ep c #f7b988",
"h8 c #f7ba87",
"g1 c #f7bc86",
"iz c #f7bf8c",
"ix c #f7c18b",
"#C c #f7dab5",
"#B c #f7dcb8",
"#k c #f7debe",
"ca c #f7e0d0",
"dP c #f7eadb",
"c2 c #f7ebdb",
"dQ c #f7ecdc",
"gn c #f7f6f6",
"hK c #f8ba88",
"iA c #f8bb87",
"iP c #f8bc86",
"iN c #f8bd8a",
"dO c #f8e8d7",
"hf c #f9b57f",
"hg c #f9b882",
"iB c #f9bb87",
"ig c #f9bc88",
"iT c #f9be88",
"if c #f9be8c",
"hr c #f9c28e",
"dc c #f9e5ce",
"is c #fabd8a",
"iM c #fabd8b",
"iS c #fabf89",
"g2 c #fac08a",
"hs c #fac392",
"dC c #faead6",
"es c #faecd7",
"cz c #faeddc",
"i# c #fbbb85",
"hO c #fbbd87",
"iL c #fbbd89",
"el c #fbbe88",
"iv c #fbbf88",
"it c #fbc08f",
"fN c #fbc18d",
"h9 c #fbc18f",
"hT c #fbc290",
"eU c #fbc48f",
"id c #fbc493",
"#z c #fbeacf",
"c1 c #fbeddc",
"iw c #fcbd86",
"ia c #fcc38b",
"fk c #fcc48e",
"ic c #fcc592",
"iy c #fcc690",
"hQ c #fcc794",
"hR c #fcc796",
"dn c #fce3d0",
"bd c #fcebd8",
"cZ c #fcf3e3",
"do c #fdefde",
"ax c #fdf1e2",
"aX c #fdf2e3",
"c0 c #fdf3e2",
"da c #fdf3e3",
"cK c #fdf4e5",
"cy c #fdf5e5",
"bF c #fdf5e6",
"b9 c #fdf6e9",
"cL c #fdf8ec",
"db c #fdf8ee",
"cY c #fef5e4",
"dp c #fef5e5",
"b8 c #fef6e6",
"cM c #fef8ef",
"gm c #fefbf7",
"fW c #fefdfb",
"gP c #fefefd",
"QtQtQtQtQtQtQtQtQtQtQtQt.#.a.b.c.dQtQtQtQtQtQtQtQtQtQtQtQtQtQtQt",
"QtQtQtQtQtQtQtQtQt.e.f.g.h.i.j.k.l.m.nQtQtQtQtQtQtQtQtQtQtQtQtQt",
"QtQtQtQtQtQtQt.o.p.q.r.s.t.u.v.w.x.y.z.A.B.CQtQtQtQtQtQtQtQtQtQt",
"QtQtQtQtQtQt.D.E.F.G.H.I.J.K.L.M.N.O.P.Q.R.S.T.UQtQtQtQtQtQtQtQt",
"QtQtQtQtQtQt.V.W.X.Y.Z.Z.0.1.2.3.4.5.6.7.8.9#.###a#bQtQtQtQtQtQt",
"QtQtQtQtQt#c#d#e#f#g#h#i#j#k#l#m#n#o#p#q#r#s#t#u#v#w#xQtQtQtQtQt",
"QtQtQtQtQt#y#z#A#B#C#D#E#F#G#H#I#J#K#L#M#N#O#P#Q#s#R#S#TQtQtQtQt",
"QtQtQtQtQt#U#V#W#X#Y#Z#0#1#2#3#4#5#6#7#8#9a.a#aaabacadaeafQtQtQt",
"QtQtQtQtagahaiajakalamanaoapaqarasatauavawaxayazaAaBabaCaDaEQtQt",
"QtQtQtQtaFaGaHaIaJaKaLaMaNaOaPaQaRaSaTaUaVaWaXaYaZa0aAaaa1a2a3Qt",
"QtQtQta4a5a6a7a8a9b.b#babbbcbdbebfbgbhbibjbkblbmbnbobpbqbrbsbtQt",
"QtQtQtbubvbwbxbybzbAbBbCbDbEbFbGbHbIbJbKbLbMbNbObPbQbRbSbTbUbVbW",
"QtQtbXbYbZb0b1b2b3b4b5b6b7bFb8b9c.c#cacbcccdcecfcgchcicjckclcmcn",
"QtQtco##cpcqcrcsctcucvcwcxbFbFcyczcAcBcCcDcEcFcGcHcIcJcKcLcMcNcO",
"QtQtafcPcQcRcScTbicUcVcWcXcYcZcyc0c1c2c3c4c5c6c7c8c9d.d#dadbdcdd",
"QtQtdedfdgdhdidjdkdldmdndodpcycycZb8dqdrdsdtdudvdwdxdydzdAdBdCdD",
"QtQtdEdFdGdHdIdJdKdLdMc0dpcydNdOdPdQdRdSdTdUdVdWdXdYdZd0d1d2d3d4",
"QtQtd5d6d7d8d9e.e#eaebeceddpcycyeeefegeheiejekelemeneoepeqereset",
"QtQteuevewexeyezeAeBeCeDeEeFeGeHeIeJeKeLeMeNeOePeQeReSeTeUeVeWeX",
"QtQteYeZe0e1e2e3e4e5e6e7e8e9f.f#fafbfcfdfefffgfhfifjfkflfmfnfofp",
"QtQt.BfqfrfsftfufvfwfxfyfzfAfBfCfDfEfFfGfHfIfJfKfLfMfNfOfPfQfRdE",
"QtQtfSfTfUfVfWfXfYfZf0f1f2f3f4f5f6f7f8f9g.g#gagbgcgdgegfggghgigj",
"QtQtQt.TgkglgmgngogpgqgrgsgtgugvgwgxgygzgAgBgCgDgEgFgGgHgIgJgKgL",
"QtQtQtgMgNgOgPgQgRgSgTgUgVgWgXgYgZg0g1g2g3g4g5g6g7g8g9h.h#hahbQt",
"QtQtQtQt#ahchdhehfhghhhihjhkhlhmhnhohphqhrhshthuhvhwhxhyhzhAhBQt",
"QtQtQtQt#b#whChDhEhFhGhHhIhJhKhLhMhNhOhPhQhRhShThUhVhWhXhYhZQtQt",
"QtQtQtQtQth0h1h2h3h4h5h6h7h8h9h9i.i#iaibicidieifigihiiijikbWQtQt",
"QtQtQtQtQtQtiliminioipiqirish9itiuiviwixiyfNiziAiBiCiDiEiFQtQtQt",
"QtQtQtQtQtQtQtafiGiHiIiJiKiLiMiNiOiPiQiRiSiTiUiViWiXiYiFQtQtQtQt",
"QtQtQtQtQtQtQtQtiZi0i1gJemi2i3i4i5i6i7i8i9j.j#jajbhZbWQtQtQtQtQt",
"QtQtQtQtQtQtQtQtQta3jcbVjdjejfjgjhjijjjkjli1gKhbjmQtQtQtQtQtQtQt",
"QtQtQtQtQtQtQtQtQtQtQtjncnjojpjqjrjsjtjudEjvgLQtQtQtQtQtQtQtQtQt"};
